<?xml version="1.0" encoding="utf-8"?>
<?xml-stylesheet href="worldstyles.css" type="text/css"?>
<!-- Generator: Adobe Illustrator 18.0.0, SVG Export Plug-In . SVG Version: 6.00 Build 0)  -->
<!DOCTYPE svg PUBLIC "-//W3C//DTD SVG 1.1//EN" "http://www.w3.org/Graphics/SVG/1.1/DTD/svg11.dtd">
<svg version="1.1" xmlns="http://www.w3.org/2000/svg" xmlns:xlink="http://www.w3.org/1999/xlink" x="0px" y="0px"
	 viewBox="0 0 805.841 367.826" style="enable-background:new 0 0 805.841 367.826;" xml:space="preserve">
<g id="area">
	<path class="st0" d="M137.091,341.953L137.091,341.953l0.476,1.411l1.398-0.685l1.346,2.005l1.373,0.754l0.625,2.723l-0.453,2.57
		l1.076,3.218l2.443,1.804l0.074,1.979l-1.685,1.114l-0.109,2.45l-2.242,3.681l-0.984-0.516l-0.253-1.654l-3.268-2.491l-0.785-3.58
		l0.017-5.14l0.538-2.345l-1.023-1.174l-0.579-2.39L137.091,341.953"/>
	<path class="st0" d="M281.32,360.116L281.32,360.116l2.741,1.994l2.716,1.171l1.166,5.25l-1.956,0.278l-3.109-4.319l-0.205-1.169
		l-2.427,0.084l-2.025-1.986l-1.103,0.236l-2.592-2.151l-4.439-1.77l-0.188-3.696l-1.449-2.637l7.329-1.391l1.532,1.956l2.343,1.251
		l-0.713,1.929l3.438,2.514L281.32,360.116"/>
	<path class="st0" d="M109.062,294.469L109.062,294.469l4.222,2.25l2.402-0.418l2.524,1.392l-0.329,0.96l0.758,2.599l-0.117,3.077
		l-2.945,0.049l1.157,1.618l-1.326,4.86l-0.898,1.28l-4.597,0.236l-2.532,1.733l-4.406-0.541l-7.678-1.874l-1.344-2.605l-5.12,1.348
		l-0.53,1.435l-3.253-1.045l-2.699-0.186l-2.451-1.353l0.711-1.845l-0.271-1.332l1.561-0.425l2.767,2.069l0.637-1.989l4.642,0.285
		l3.661-1.378l2.525,0.209l1.739,1.525l0.4-1.282l-1.082-4.891l1.803-0.972l1.577-3.483l4.043,2.382l2.673-3.106L109.062,294.469"/>
	<path class="st0" d="M278.222,361.42L278.222,361.42l2.025,1.986l2.427-0.084l0.205,1.169l3.109,4.319l-3.983-0.903l-3.459-3.419
		l-1.426-2.832L278.222,361.42 M288.883,349.844L288.883,349.844l2.517,0.445l0.513-1.955l2.561-3.152l3.744,3.899l3.964,5.288
		l2.621,0.275l2.138,1.991l-4.369,0.75l0.316,5.917l-0.385,2.684l-1.652,1.832l0.92,3.751l-1.3,0.418l-4.253-3.87l1.129-3.805
		l-2.087-2.176l-1.945,0.62l-5.372,5.775l-1.166-5.25l-2.716-1.171l-2.741-1.994l1.061-2.455l-3.438-2.514l0.713-1.929l-2.343-1.251
		l-1.532-1.956l1.078-1.274l4.503,2.059l3.028,0.364l0.555-0.909l-3.542-4.017l1.184-1.085l1.577,0.208L288.883,349.844"/>
	<path class="st0" d="M55.284,276.543L55.284,276.543l3.322,3.277l2.865,1.743l-0.405,5.08l-1.33,0.289l-0.422,4.217l-4.609-3.409
		l-2.625,0.594l-3.664-3.533l-2.438-3.01l-2.377-0.119l-0.779-2.641l4.053-1.491l3.737,0.58L55.284,276.543"/>
	<path class="st0" d="M151.645,330.099L151.645,330.099l1.888,3.071l2.021-0.582l4.265,1.11l7.946,0.269l2.425-1.965l6.087-1.861
		l4.272,2.667l3.267,0.733l-2.369,3.172l-1.264,5.423l2.308,4.267l-4.808-0.929l-5.25,2.462l0.387,3.752l-4.884,0.79l-4.143-2.572
		l-4.145,2.134l-4.065-0.159l-0.908-4.973l-2.976-2.377l0.782-1.075l-0.682-0.887l0.658-2.408l1.806-2.383l-2.973-3.21l-0.781-2.742
		L151.645,330.099"/>
	<path class="st0" d="M120.681,322.98L120.681,322.98l4.692,1.196l3.678-0.149l2.57,1.635l1.934-0.045l-1.025,3.326l2.86,2.861
		l-0.45,3.549l-1.238,0.349l-0.945,0.699l-1.598,1.77l-0.429,4.148l-5.036-2.793l-2.301-3.12l-2.192-1.642l-2.7-2.782l-1.35-2.318
		l-2.899-3.489l0.87-3.133l2.053,1.706l1.028-1.573L120.681,322.98"/>
	<path class="st0" d="M172.226,241.583L172.226,241.583l1.046,1.85l2.376-0.956l5.105,1.68l1.181,3.517l-0.649,2.053l4.049,4.849
		l2.28,1.323l-0.028,1.365l3.602,1.242l1.832,1.97l-1.607,1.693l-4.067-0.164l-0.823,0.726l1.649,2.469l2.151,4.788l-4.233,0.548
		l-1.249,1.687l0.358,3.794l-2.143-0.682l-4.504,0.461l-1.627-1.73l-1.675,1.352l-2.084-1.047l-4.006-0.069l-5.924-1.693
		l-5.187-0.492l-3.884,0.239l-2.476,2.088l-2.378,0.336l-0.562-3.346l-2.039-3.457l2.79-1.588l-0.405-2.998l-1.798-2.835l-0.7-3.322
		l4.796-0.036l4.925-2.935l0.453-4.266l3.613-2.488l-1.035-3.357l2.738-1.326l4.685-3.012L172.226,241.583"/>
	<path class="st0" d="M74.615,303.843L74.615,303.843l5.724,2.263l0.271,1.332l-0.711,1.845l2.451,1.353l2.699,0.186l-0.252,3.085
		l-2.263,1.284l-3.96-0.917l-1.005,3.038l-2.515,0.254l-0.97-1.186l-2.869,2.565l-2.547,0.37l-2.342-1.599l-1.932-3.288
		l-2.488,1.188l-0.028-3.403l3.709-4.24l-0.237-1.909l2.416,0.68l1.39-1.291l4.459,0.028L74.615,303.843"/>
	<path class="st0" d="M691.717,511.324L691.717,511.324l-4.297,4.091l-5.432-2.319l-1.718-6.94l2.081-3.778l5.94-2.536l3.452,0.046
		l2.064,3.033l-1.775,3.671L691.717,511.324 M669.206,256.677L669.206,256.677l10.031,1.465l9.778,4.78l7.442,7.009l7.213-0.876
		l1.74-3.557l5.96-3.262l2.991,7.265l0.342,3.066l4.775,8.715l2.288,7.986l-6.904-0.68l-2.238,3.251l5.959,6.556l5.574,9.37
		l-2.415,0.499l2.666,4.002l-6.297-4.294l0.89,4.635l-5.634,4.238l3.407,4.082l-4.586,0.174l-3.952-2.222l-0.074,5.962l-3.127,4.82
		l-1.257,5.49l-5.967,3l-1.786,4.063l-4.472,2.683l0.782-3.926l-2.803-2.979l1.121-5.7l-5.111-3.872l-2.919,3.211l-2.812,6.03
		l-0.456,5.392l-4.957,0.838l-0.75,3.922l5.565,5.108l5.02,0.925l2.002,3.546l5.404,1.957l3.037-6.196l6.338,2.676l3.55-0.095
		l3.042,4.098l-6.429,2.89l-0.348,4.52l-3.283,4.442l-0.113,5.816l7.927,3.921l5.79,7.714l6.664,7.104l6.481,5.9l2.488,6.005
		l-2.575,2.467l3.126,4.214l4.332,2.273l1.791,6.665l1.07,6.533l-2.892,0.946l-0.896,9.067l-0.895,10.962l-2.148,10.028
		l-5.638,7.957l-6.085,7.274l-6.327,1.271l-2.569,3.784l-2.762-2.531l-2.204,4.19l-7.133,4.446l-5.91,1.527l0.126,8.626
		l-3.166,0.614l-2.992-5.794l0.608-3.184l-8.566-2.226l-2.451,1.435l-6.461-1.825l-3.635-3.139l-0.276-4.666l-5.749-1.219
		l-3.623-2.876l-3.876,4.492l-5.474,1.175l-4.696,0.164l-2.667,2.084l-2.763,1.298l3.072,9.094l-3.203-0.092l-0.968-1.854
		l-0.956-3.291l-3.782,2.496l-2.9-1.365l-5.085-2.812l0.117-6.678l-4.1-1.384l-3.24-7.251l-5.844,1.581l-1.732-9.431l3.712-6.866
		l-1.612-6.543l-1.935-6.047l-3.071-1.761l-3.315-4.555l-3.18,0.755l-6.542-0.873l0.94-3.406l-4.183-4.763l-3.062,3.519
		l-5.383-1.695l-5.119,5.326l-3.566,6.089l-4.376,1.194l-3.108-1.996l-3.097-0.054l-4.617-1.63l-2.566,2.126l-2.267,5.989
		l-2.124-6.146l-3.077,1.798l-6.931-0.477l-6.996-1.515l-5.576-3.229l-4.876-1.348l-2.918-3.659l-3.522-0.98l-7.138-4.821
		l-5.225-2.193l-1.875,1.957l-9.382-5.091l-6.91-4.669l-3.924-8.459l4.35,0.864l-0.929-3.957l-3.374-3.857l-1.272-6.327l-8.71-8.769
		l-10.086-2.697l-3.432-5.838l-5.181-3.396l-1.661-2.16l-2.187-4.34l-0.751-2.994l-3.877-1.59l-1.554,0.857l-3.64-7.03l0.98-1.827
		l-1.332-1.757l3.969-3.871l3.223-1.684l6.063,0.74l0.33-4.999l6.559-1.271l0.804-3.145l6.856-4.612l0.087-1.775l-2.104-4.345
		l2.843-2.2l-10.042-13.016l9.018-3.665l1.925-1.863l-2.315-13.896l11.241,1.856l1.225-3.635l-3.387-7.658l3.824-0.995l1.304-5.331
		l1.634-0.762l3.964,5.219l6.218,3.747l8.6,2.358l6.534,5.906l2.364,9.083l3.421,3.197l6.734,0.887l7.442,0.582l8.535,4.346
		l3.604,0.625l5.76,6.935l5.222,4.366l5.675-0.593l11.608,0.946l6.411-1.596l5.712,0.763l10.054,4.121l6.32-0.497l3.524,2.237
		l3.963-4.658l6.985-3.383l7.6-0.942l4.547-3.252l1.381-4.487l2.103-2.931l-2.285-2.49l-3.332-2.837l-0.257-5.236l3.247,0.441
		l6.108,1.094l2.532-4.585l5.764-3.732l0.407-5.471l2.056-2.546l6.465-1.751l4.443,0.472l-1.291-2.801l-8.034-4.93l-5.552-2.055
		l-1.832,3.224l-5.597-0.71l-2.118,1.254l-3.32-3.018l-1.724-8.012l-1.645-6.009l7.736,2.285l3.268-5.546l-2.471-3.352l-1.754-8.533
		l0.731-2.721l-3.267-4.174l-3.903-1.512l0.834-4.185l4.552-2.012l5.822-0.909l8.578,1.435l6.237,2.298l8.988,7.291l4.328,3.059
		l5.304,4.479L669.206,256.677"/>
	<path class="st0" d="M102.894,278.898L102.894,278.898l1.415,0.85l2.205-0.809l2.63,2.393l3.877,0.61l-0.127,2.072l2.929,1.522
		l0.579-1.951l3.593,0.797l0.722,2.348l3.864,0.405l2.756,3.671l-1.537,0.03l-0.66,1.364l-1.152,0.342l-0.167,1.715l-0.956,0.37
		l-0.071,0.701l-1.694,0.8l-2.31-0.099l-0.581,1.663l-2.524-1.392l-2.402,0.418l-4.222-2.25l-1.776,0.581l-2.673,3.106l-4.043-2.382
		l-3.161-3.204l-2.764-1.783l-0.767-3.165l-1.055-2.226l3.606-1.671l1.757-1.891l3.549-1.492L102.894,278.898"/>
	<path class="st0" d="M78.811,250.041L78.811,250.041l0.27,2.904l5.107,1.712l0.13,2.668l4.939-1.455l2.622-2.084l5.829,2.912
		l2.551,2.369l1.499,3.812l-1.22,2.021l2.052,2.66l1.597,4.007l-0.169,2.596l2.497,4.777l-2.205,0.809l-1.415-0.85l-1.16,1.444
		l-3.549,1.492l-1.757,1.891l-3.606,1.671l1.055,2.226l0.767,3.165l2.764,1.783l3.161,3.204l-1.577,3.483l-1.803,0.972l1.082,4.891
		l-0.4,1.282l-1.739-1.525l-2.525-0.209l-3.661,1.378l-4.642-0.285l-0.637,1.989l-2.767-2.069l-1.561,0.425l-5.724-2.263
		l-1.002,1.639l-4.459-0.028l0.446-5.358l2.407-5.161l-7.52-1.345l-2.51-1.957l0.176-3.296l-1.086-1.693l0.405-5.08l-1.134-7.871
		l3.041-0.017l1.168-2.835l0.963-6.887l-1.043-2.536l0.904-1.597l4.14-0.432l1.006,1.652l3.183-3.727l-1.286-2.81l-0.457-4.26
		l3.775,0.966L78.811,250.041"/>
	<path class="st0" d="M92.032,245.212L92.032,245.212l-2.459,6.115l-5.452-4.199l-0.904-3.114l6.952-2.555L92.032,245.212
		 M82.894,238.914L82.894,238.914l-0.985,2.845l-1.503-0.804l-3.158,5.438l1.563,3.649l-3.078,1.167l-3.775-0.966l-2.213-4.158
		l-0.554-7.681l0.695-2.034l1.256-2.264l4.21-0.496l1.552-2.086l3.705-2.151l0.113,3.866l-1.255,2.459l0.724,2.1L82.894,238.914"/>
	<path class="st0" d="M-12.973,334.543L-12.973,334.543l6.549,1.387l7.245-0.019l5.714,1.301l4.491-0.383l8.724,0.264l2.132,2.924
		l9.973,3.419l1.969-1.625l6.131,3.395l6.291-0.984l0.352,4.365l-5.121,5.013l-7.013,1.595l-0.481,2.528l-3.376,4.167l-2.133,6.117
		l2.163,4.295l-3.222,3.352l-1.219,4.884l-4.231,1.495l-4.014,5.774l-7.137,0.104l-5.356-0.154l-3.573,2.645l-2.21,2.834
		l-2.747-0.632l-2.027-2.546l-1.485-4.329l-5.205-1.184l-0.392-2.491l2.157-2.81l0.825-2.04l-1.856-2.242l1.684-4.932l-2.079-4.515
		l2.408-0.608l0.33-3.551l0.928-1.096l0.249-5.864l2.591-2.025l-1.415-3.776l-3.169-0.276l-0.966,0.945l-3.224-0.006l-1.228-3.687
		l-2.264,1.084l-2.055,1.899l0.497-5.352l-2.073-3.274L-12.973,334.543"/>
	<path class="st0" d="M151.01,214.191L151.01,214.191l5.297,1.133l4.776-0.329l0.964,1.295l-2.497,4.402l2.734,6.975l-1.597,2.429
		l-3.94,0.07l-4.596-2.704l-2.243-0.879l-3.827,1.408l-0.19-4.443l-1.583,0.981l-3.44-2.613l-1.113-4.308l5.567-2.207
		L151.01,214.191"/>
	<path class="st0" d="M147.704,143.022L147.704,143.022l0.697,5.257l7.625,4.835l-2.479,5.743l7.05,8.406l-1.363,6.498l5.268,5.481
		l-0.651,4.931l7.813,4.97l-0.777,3.869l-3.2,4.44l-7.742,9.814l-8.26,0.782l-7.641,2.921l-7.296,1.729l-3.352-4.048l-4.864-2.386
		l-0.146-7.416l-3.284-6.735l1.429-4.41l3.235-4.788l8.552-8.335l2.595-1.629l-1.1-3.163l-6.709-3.422l-2.016-2.89l-2.393-11.547
		l-7.491-4.983l-6.177-3.574l2.093-2.024l5.32,3.883l5.306-0.473l4.81,1.723l3.198-3.398l0.743-5.535l5.662-2.676l5.937,2.856
		L147.704,143.022"/>
	<path class="st0" d="M-293.043,644.254L-293.043,644.254l-2.392,2.901l-2.95,0.542l-0.812-2.156l-1.371-0.323l-1.929,2.072
		l-2.665-1.585l1.605-3.266l0.592-3.486l1.124-3.277l-2.285-4.527l-0.352-5.242l3.391-6.569l2.057,0.853l4.464,1.833l6.327,6.483
		l0.944,3.135l-3.772,6.986L-293.043,644.254 M82.076,346.491L82.076,346.491l-1.553,5.817l-2.545-1.517l-1.463-5.051l0.984-2.799
		l3.369-2.89L82.076,346.491 M48.417,284.802L48.417,284.802l3.664,3.533l2.625-0.594l4.609,3.409l1.176,0.648l1.485-0.165
		l2.51,1.957l7.52,1.345l-2.407,5.161l-0.446,5.358l-1.39,1.291l-2.416-0.68l0.237,1.909l-3.709,4.24l0.028,3.403l2.488-1.188
		l1.932,3.288l-0.145,2.125l1.665,2.815l-1.77,2.298l1.577,5.809l2.946,0.94l-0.497,3.265l-4.751,4.268l-10.716-1.997l-7.832,2.457
		l-0.556,4.527l-6.291,0.984l-6.131-3.395l-1.969,1.625l-9.973-3.419l-2.132-2.924l2.823-4.505l1.113-14.971l-5.383-7.893
		l-3.823-3.809l-7.944-2.911l-0.39-5.482l6.769-1.616l8.697,1.948l-1.557-8.508l4.847,3.229l11.995-5.862l1.485-6.16l4.44-1.524
		l0.779,2.641l2.377,0.119L48.417,284.802"/>
	<path class="st0" d="M2.058,253.387L2.058,253.387l-2.847,5.151l-3.689-1.568l-3.072,0.086l1.209-4.021l-0.824-4.032l4.129-0.287
		L2.058,253.387 M15.788,222.766L15.788,222.766l-5.288,8.117l4.903-1.016l5.242,0.05l-1.339,6.121l-4.477,6.726l5.029,0.49
		l4.658,9.662l3.375,1.209l3.052,8.562l1.432,2.968l6.09,1.427l-0.566,4.807l-2.56,2.206l2.056,3.886l-4.564,3.939l-6.837-0.07
		l-8.729,2.056l-2.363-1.484l-3.454,3.513l-4.727-0.867l-3.688,2.857l-2.685-1.511l7.728-7.866l4.589-1.61l-7.938-1.283
		l-1.342-2.996l5.342-2.311l-2.645-4.057l1.091-4.919l7.409,0.702l0.814-4.361l-3.293-4.743l-5.952-1.342l-1.109-2.038l1.887-3.351
		l-1.541-2.076l-2.755,3.543l-0.022-7.245l-2.296-3.844l2.056-7.761l3.921-6.08l3.764,0.609L15.788,222.766"/>
	<path class="st0" d="M266.875,338.91L266.875,338.91l1.235,1.378l3.022-1.281l5.363,1.435l2.315,3.055l3.776,1.653l-1.184,1.085
		l3.542,4.017l-0.555,0.909l-3.028-0.364l-4.503-2.059l-1.078,1.274l-7.329,1.391l-5.967-3.57l-5.72,0.514l0.192-3.251l-2.35-5.118
		l-3.657-2.7l-3.15-0.79l-2.414-2.262l0.483-0.909l4.788,1.17l8.152,1.007L266.875,338.91"/>
	<path class="st0" d="M163.863,394.243L163.863,394.243l3.319,2.499l4.358-0.488l4.256,0.477l-0.009,1.313l2.992-0.947l-0.487,2.233
		l-8.093,0.751l-0.059-1.244l-7.035-1.38L163.863,394.243 M175.327,349.887L175.327,349.887l-1.129,4.742l-1.203,0.866l-3.363-0.161
		l-2.938-0.668l-6.425,2.056l4.258,4.177l-2.668,1.268l-3.068,0.051l-3.303-3.837l-0.867,1.666l1.676,4.48l3.115,3.496l-1.926,1.678
		l3.43,3.429l2.969,2.146l0.503,4.254l-5.353-1.926l2.01,3.819l-3.478,0.837l2.733,6.619l-3.726,0.141l-4.89-3.219l-2.619-5.998
		l-1.412-4.997l-2.47-3.434l-3.211-4.258l-0.56-2.139l2.242-3.681l0.109-2.45l1.685-1.114l-0.074-1.979l3.522-0.713l1.926-1.673
		l2.98,0.105l0.765-1.325l1.016-0.265l4.065,0.159l4.145-2.134l4.143,2.572l4.884-0.79l-0.387-3.752L175.327,349.887"/>
	<path class="st0" d="M123.544,317.542L123.544,317.542l4.514,1.393l1.876-1.148l1.57,2.897l1.898,2.122l-1.782,2.857l-2.57-1.635
		l-3.678,0.149l-4.692-1.196l-2.476,0.194l-1.028,1.573l-2.053-1.706l-0.87,3.133l2.899,3.489l1.35,2.318l2.7,2.782l2.192,1.642
		l2.301,3.12l5.036,2.793l-0.486,1.286l-5.331-2.725l-3.358-2.673l-5.113-2.183l-4.942-5.489l1.041-0.573l-2.678-3.138l-0.288-2.537
		l-3.515-1.153l-1.408,3.261l-1.75-2.503l-0.06-2.612l0.181-0.123l3.726,0.222l0.881-1.278l1.9,1.21l2.099,0.125l-0.183-2.101
		l1.784-0.789l0.27-3.043l4.041-2.044l1.758,0.907L123.544,317.542"/>
	<path class="st0" d="M138.136,297.225L138.136,297.225l5.831,2.202l1.018-0.787l3.137,2.001l0.61,2.011l-3.001,1.628l-1.89,5.139
		l-2.619,5.148l-4.089,1.478l-3.336-0.288l-3.863,2.03l-1.876,1.148l-4.514-1.393l-4.242-3.179l-1.758-0.907l-1.242-2.527
		l-0.893-0.073l1.326-4.86l-1.157-1.618l2.945-0.049l0.117-3.077l2.835,1.893l2.005,0.796l4.296-0.977l0.268-1.516l2.049-0.25
		l2.415-1.202l0.614,0.473l2.343-0.973l1.023-1.787L138.136,297.225"/>
	<path class="st0" d="M282.004,367.906L282.004,367.906l3.983,0.903l1.956-0.278l5.372-5.775l1.945-0.62l2.087,2.176l-1.129,3.805
		l4.253,3.87l1.3-0.418l2.888,5.542l5.591,1.427l4.644,3.696l8.201,1.073l8.279-2.279l0.147-1.795l4.559-1.627l2.958-4.477
		l3.752,0.097l2.096-1.499l4.097,0.567l7.042,3.647l4.628,0.678l7.98,6.527l4.219,0.126l2.032,6.405l-0.085,9.592l-0.311,5.609
		l2.712,1.047l-1.513,4.263l3.163,6.042l1.459,4.84l4.6,1.154l1.483,4.911l-3.838,7.096l3.635,3.942l3.21,4.558l6.179,3.21
		l1.415,6.749l3.014,1.163l1.124,3.52l-7.733,4.192l-0.717,8.967l-11.427-2.039l-6.682-1.603l-6.779-0.834l-3.992-9.314
		l-3.015-1.285l-4.267,1.475l-5.321,3.836l-7.535-2.366l-6.788-5.724l-5.942-2.041l-4.994-7.136l-5.875-10.045l-2.91,1.307
		l-4.066-2.434l-1.691,3.017l-3.813-3.922l-0.693-4.046l-1.837,0.045l0.062-5.524l-3.886-5.701l-7.672-3.992l-5.123-7.116
		l0.317-5.949l2.389-2.688l-1.204-4.418l-4.086-2.181l-5.239-8.946l-4.144-5.988l0.654-2.373l-3.352-8.636l3.351-2.258l1.426,2.832
		L282.004,367.906"/>
	<path class="st0" d="M116.519,375.73L116.519,375.73l-1.64,5.938l0.981,2.323l-0.945,3.878l-4.459-2.798l-2.897-0.789l-8.016-3.766
		l0.584-3.866l6.563,0.638l5.64-0.865L116.519,375.73 M80.468,353.587L80.468,353.587l3.519,5.318l-0.357,9.947l-2.539-0.46
		l-2.167,2.522l-2.173-1.983l-0.551-9.068l-1.412-4.291l3.032,0.361L80.468,353.587 M95.297,311.69L95.297,311.69l7.678,1.874
		l-0.311,3.708l1.497,3.189l-4.305-1.057l-4.152,2.705l0.526,3.729l-0.524,2.147l1.991,3.813l5.286,3.744l3.126,6.192l6.458,6.005
		l4.266-0.088l1.451,1.649l-1.422,1.513l5.098,2.67l4.197,2.233l5.022,3.872l0.683,1.399l-0.815,2.706l-3.334-3.48l-4.874-1.188
		l-1.965,4.889l4.196,2.749l-0.372,3.932l-2.287,0.469l-2.533,6.48l-2.288,0.601l-0.127-2.3l0.87-4.045l1.098-1.618l-2.458-4.339
		l-1.94-3.777l-2.35-0.916l-1.836-3.231l-3.616-1.336l-2.559-3.002l-4.08-0.454l-4.463-3.361l-5.246-4.857l-3.91-4.305l-2.052-7.42
		l-2.718-0.857l-4.482-2.455l-2.428,1.029l-2.97,3.504l-2.219,0.562l0.497-3.265l-2.946-0.94l-1.577-5.809l1.77-2.298l-1.665-2.815
		l0.145-2.125l2.342,1.599l2.547-0.37l2.869-2.565l0.97,1.186l2.515-0.254l1.005-3.038l3.96,0.917l2.263-1.284l0.252-3.085
		l3.253,1.045l0.53-1.435l5.12-1.348L95.297,311.69"/>
	<path class="st0" d="M784.33,376.216L784.33,376.216l2.163,2.727l-0.489,5.224l-3.569-2.407l-1.81,2.153l0.958,4.902l-4.711-1.999
		l-1.902-3.865l0.499-5.13l3.56,0.65l0.419-3.629L784.33,376.216 M803.991,348.37L803.991,348.37l1.964,6.705l3.34,3.981
		l0.594,6.048l-4.617,4.557l-9.111,1.461l-2.66,10.072l-5.276-2.786l-3.47-6.065l-8.386,2.699l-4.393,4.428l-6.257,0.741
		l8.524,5.476l3.076,14.181l-1.97,3.741l-4.143-2.947l-2.124-7.46l-4.608-2.064l-4.933-5.373l3.903-2.958l0.254-5.356l3.239-4.696
		l0.97-5.913l9.28-3.464l6.61,1.084l-2.788-14.971l5.782,3.488l2.776-8.925l0.996-3.468l-3.073-10.222l-6.847-8.915l-1.31-5.305
		l4.302-2.12l10.354,10.769l4.193,6.541l0.506,8.685L803.991,348.37 M779.835,290.217L779.835,290.217l4.686,1.225l0.804-3.812
		l7.928,8.735l-5.583,3.141l1.49,8.462l-11.684-4.443l3.503,9.045l-5.465,0.804l-6.232-7.82l-1.956-6.402l4.906-1.109l-6.79-11.094
		l-3.329-6.304l11.987,7.419L779.835,290.217"/>
	<path class="st0" d="M374.578,239.149L374.578,239.149l5.083,7.713l4.178-2.128l7.367,2.199l1.513,4.138l4.437-0.71l8.605-7.862
		l-0.585,2.473l8.983,5.432l20.156,18.495l0.724-4.135l8.892,3.918l6.113-2.421l3.393,1.179l4.551,4.221l4.188,1.237l3.708,3.079
		l5.881-1.46l4.97,4.466l-1.304,5.331l-3.824,0.995l3.387,7.658l-1.225,3.635l-11.241-1.856l2.315,13.896l-1.925,1.863l-9.018,3.665
		l10.042,13.016l-2.843,2.2l2.104,4.345l-3.7-0.942l-3.706-2.605l-8.157-0.369l-8.859,0.263l-1.619,0.944l-8.71-2.818l-2.439,1.736
		l0.765,4.552l-9.668-2.193l-3.134,1.249l-0.066,3.402l-2.596,1.558l-5.353,5.652l-0.647,5.57l-2.001,0.139l-2.598-3.549
		l-6.938,0.057l-3.017-6.197l-2.632,0.062l-1.992-7.658l-8.13-5.273l-8.917,0.994l-5.895,1.374l-7.137-6.632l-5.192-2.689
		l-9.793-5.091l-1.178-0.617l-12.243,5.02l7.722,27.961l-2.685,0.47l-5.294-5.816l-4.182-1.995l-5.722,1.792l-1.769,2.604
		l-0.753-1.838l0.548-3.205l-1.681-2.605l-6.857-2.367l-4.095-6.718l-3.415-1.814l-0.793-2.46l5.344,0.54l-1.221-5.54l4.163-1.389
		l4.907,0.962l-1.069-7.418l-2.233-4.643l-5.113,0.561l-4.932-1.683l-5.152,3.541l-4.47,1.755l-2.97-1.131l-0.467-3.906
		l-4.619-4.932l-3.793,0.342l-5.696-4.972l1.489-5.82l-1.9-1.487l1.84-8.428l6.428,4.187l-0.906-5.532l7.99-8.591l7.751-0.503
		l12.694,4.771l6.94,2.803l4.288-3.412l7.896-0.502l7.77,3.623l0.678-2.308l7.159-0.002l-0.041-3.636l-9.947-4.81l3.407-3.899
		l-1.687-2.01l3.982-2.188l-5.502-4.989l1.242-2.679l17.074-3.545l1.575-1.985l10.811-3.434l2.895-3.363L374.578,239.149"/>
	<path class="st0" d="M428.451,328.203L428.451,328.203l8.71,2.818l1.619-0.944l8.859-0.263l8.157,0.369l3.706,2.605l3.7,0.942
		l-0.087,1.775l-6.856,4.612l-0.804,3.145l-6.559,1.271l-0.33,4.999l-6.063-0.74l-3.223,1.684l-3.969,3.871l1.332,1.757l-0.98,1.827
		l-9.929,1.643l-7.502-2.179l-5.724,0.858l-0.834-4.43l6.307,1.012l1.244-2.452l4.362,0.562l5.126-5.84l-7.716-3.721l-3.205,2.088
		l-4.905-2.688l2.862-5.161l-1.839-0.675l0.066-3.402l3.134-1.249l9.668,2.193l-0.765-4.552L428.451,328.203"/>
	<path class="st0" d="M731.079,343.525L731.079,343.525l9.884,8.988l4.193,5.073l5.049,9.265l0.306,4.62l-4.076,1.996l-2.621,3.732
		l-4.535,1.121l-2.801-4.332l-2.086-6.12l-6.746-8.132l3.228-1.717l-7.354-6.501l-0.068-0.755l2.512,0.06l0.041-3.8l3.491-0.748
		l1.933-0.745L731.079,343.525"/>
	<path class="st0" d="M146.174,340.521L146.174,340.521l1.194,1.381l0.765-0.052l-0.422,1.841l-0.559,0.904l0.237,0.562
		l-1.188,0.306l-3.098,1.208l-0.097,1.544l-0.698-0.054l-0.624-2.723l-1.373-0.754l-1.346-2.005l0.853-1.699l1.243-0.558
		l0.504-2.508l0.928-0.429l0.873,1.052l1.057,0.455l0.828,1.188L146.174,340.521"/>
	<path class="st0" d="M150.469,238.618L150.469,238.618l0.935,1.55l2.658,0.432l5.288,3.552l1.035,3.357l-3.613,2.488l-0.453,4.266
		l-4.925,2.935l-4.796,0.036l-1.526-2.295l-2.649-0.76l-0.669-1.911l0.228-2.067l-2.34-1.155l-5.315-1.23l-1.903-6.301l5.224-2.399
		l8.189,0.336L150.469,238.618"/>
	<path class="st0" d="M61.977,291.633L61.977,291.633l-1.485,0.165l-1.176-0.648l0.422-4.217l1.33-0.289l1.086,1.693L61.977,291.633
		"/>
	<path class="st0" d="M163.312,231.777L163.312,231.777l1.088,3.635l2.372,4.401l-4.685,3.012l-2.738,1.326l-5.288-3.552
		l-2.658-0.432l-0.935-1.55l-4.632,0.834l-8.189-0.336l-5.224,2.399l-0.619-5.66l1.685-4.759l4.118-2.645l4.668,5.545l3.83-0.218
		l-0.025-5.786l3.827-1.408l2.243,0.879l4.596,2.704l3.94-0.07L163.312,231.777"/>
	<path class="st0" d="M187.52,312.184L187.52,312.184l1.101,0.743l-1.309,0.585l-3.141-0.158l-0.677-1.032l-1.011,0.623l0.575,1.341
		l-1.091,2.429l-0.549,2.601l-1.218,0.843l-1.441-3.418l0.092-3.226l-0.653-3.301l-3.683-4.418l-2.122-3.142l-1.94-2.201
		l-1.692-0.704l1.078-1.133l3.341-0.811l4.185,2.27l2.183,0.239l2.669,1.978l0.022,2.559l2.097,1.193l1.248,3.132l2.133,1.877
		L187.52,312.184"/>
	<path class="st0" d="M154.675,346.908L154.675,346.908l0.908,4.973l-1.016,0.265l-0.765,1.325l-2.98-0.105l-1.926,1.673
		l-3.522,0.713l-2.443-1.804l-1.076-3.218l0.453-2.57l0.698,0.054l0.097-1.544l3.098-1.208l1.188-0.306l1.805-0.465l2.504-0.16
		L154.675,346.908"/>
	<path class="st0" d="M139.817,340.98L139.817,340.98l-0.853,1.699l-1.398,0.685l-0.476-1.411l-2.017,3.734l0.579,2.39l-1.192-0.569
		l-1.741-2.438l-2.477-1.466l0.486-1.286l0.429-4.148l1.598-1.77l0.945-0.699l1.551,1.273l0.886,1.032l1.851,0.788l2.211,1.535
		L139.817,340.98"/>
	<path class="st0" d="M544.375,263.387L544.375,263.387l8.836,2.597l3.696-1.82l5.473-1.549l5.462,0.559l7.06,3.225l5.418,3.629
		l4.446-0.502l6.902,0.665l3.213-2.325l5.505-1.889l3.364-6.086l3.423,0.532l4.259,2.302l5.247-1.227l1.645,6.009l1.724,8.012
		l3.32,3.018l2.118-1.254l5.597,0.71l1.832-3.224l5.552,2.055l8.034,4.93l1.291,2.801l-4.443-0.472l-6.465,1.751l-2.056,2.546
		l-0.407,5.471l-5.764,3.732l-2.532,4.585l-6.108-1.094l-3.247-0.441l0.257,5.236l3.332,2.837l2.285,2.49l-2.103,2.931l-1.381,4.487
		l-4.547,3.252l-7.6,0.942l-6.985,3.383l-3.963,4.658l-3.524-2.237l-6.32,0.497l-10.054-4.121l-5.712-0.763l-6.411,1.596
		l-11.608-0.946l-5.675,0.593l-5.222-4.366l-5.76-6.935l-3.604-0.625l-8.535-4.346l-7.442-0.582l-6.734-0.887l-3.421-3.197
		l-2.364-9.083l-6.534-5.906l-8.6-2.358l-6.218-3.747l-3.964-5.219l4.568-1.691l5.99-7.236l5.504-4.134l5.531,2.004l5.159-0.284
		l5.25,3.295l5.043-0.113l8.165,1.345l1.693-5.688l-4.594-4.31l0.254-8.278l7.276,2.674l4.894,0.512l6.843,1.457L544.375,263.387"/>
	<path class="st0" d="M60.338,273.692L60.338,273.692l1.134,7.871l-2.865-1.743l-3.322-3.277l-4.671,1.577l-3.737-0.58l2.574-2.072
		l4.131-11.07l6.732-3.173l4.153,0.192l1.043,2.536l-0.963,6.887l-1.168,2.835L60.338,273.692"/>
	<path class="st0" d="M141.953,127.19L141.953,127.19l13.925,5.17l-4.615,2.131l5.707,4.587l-6.135,3.175l-3.132,0.769l0.392-5.294
		l-5.937-2.856l-5.662,2.676l-0.743,5.535l-3.198,3.398l-4.81-1.723l-5.306,0.473l-5.32-3.883l-2.093,2.024l-2.495,0.351
		l0.248,4.946l-8.019-1.08l-0.461,4.195l-4.021,0.032l-2.034,5.379l-3.187,8.379l-5.521,10.645l1.881,2.548l-1.216,2.994
		l-4.408-0.081l-2.226,7.075l1.18,9.974l3.271,3.778l-0.728,8.848l-3.452,5.188l-1.733,4.349l-3.502-4.584l-8.752,8.76l-6.249,1.8
		l-6.737-3.794l-1.995-8.071l-2.11-17.336l3.979-4.854l11.516-6.378l8.184-7.822l7.029-10.545l8.601-14.615l6.235-5.74l9.816-9.577
		l8.287-3.43l6.713,0.277l4.762-6.325l7.323,0.181L141.953,127.19"/>
	<path class="st0" d="M127.171,253.685L127.171,253.685l6.189,0.759l9.063-0.264l2.649,0.76l1.526,2.295l0.7,3.322l1.798,2.835
		l0.405,2.998l-2.79,1.588l2.039,3.457l0.562,3.346l3.465,6.521l-0.257,2.12l-2.419,0.919l-3.851,6.333l1.758,3.359l-1.184-0.421
		l-5.261-2.814l-3.587,1.119l-2.525-0.736l-2.869,1.656l-2.893-2.629l-2.011,1.05l-0.339-0.45l-2.756-3.671l-3.864-0.405
		l-0.722-2.348l-3.593-0.797l-0.579,1.951l-2.929-1.522l0.127-2.072l-3.877-0.61l-2.63-2.393l-2.497-4.777l0.169-2.596l-1.597-4.007
		l-2.052-2.66l1.22-2.021l-1.499-3.812l3.193-2.244l7.377-3.567l5.928-2.624l5.056,1.201l0.588,1.828L127.171,253.685"/>
	<path class="st0" d="M724.408,312.267L724.408,312.267l1.606,1.304l-2.223-0.263l-0.465,2.914l0.201,2.854l3.761,5.668
		l-1.564,2.032l-0.055,1.495l-0.516,2.548l-2.652,1.658l-0.979,2.361l1.855,3.458l-0.096,0.939l2.823,1.088l4.974,3.203l0.352,2.005
		l-1.933,0.745l-3.491,0.748l-0.041,3.8l-2.512-0.06l0.068,0.755l-3.398-1.276l0.185,1.559l-1.188,0.808l-1.004-1.483l-1.767-0.602
		l-2.114-1.138l-0.494-3.64l0.717-1.052l-1.282-1.408l-1.106-4.414l-1.085-1.264l-3.534-0.569l-3.674-1.887l1.257-5.49l3.127-4.82
		l0.074-5.962l3.952,2.222l4.586-0.174l-3.407-4.082l5.634-4.238l-0.89-4.635L724.408,312.267"/>
	<path class="st0" d="M172.392,302.656L172.392,302.656l2.122,3.142l3.683,4.418l0.653,3.301l-0.092,3.226l1.441,3.418l2.569,1.342
		l2.319-1.26l2.6,1.245l0.412,1.94l-2.346,1.671l-1.721-0.674l-0.218,9.115l-3.267-0.733l-4.272-2.667l-6.087,1.861l-2.425,1.965
		l-7.946-0.269l-4.265-1.11l-2.021,0.582l-1.888-3.071l-1.126-1.297l1.099-1.289l-1.424-0.917l-1.493,1.711l-3.354-2.141
		l-0.752-3.096l-3.431-1.724l-0.848-2.386l-3.182-2.916l4.089-1.478l2.619-5.148l1.89-5.139l3.001-1.628l2.052-1.647l3.33,0.78
		l3.346-0.028l2.666,1.797l1.627-1.186l3.749-0.792l1.061-1.783l2.195-0.04l1.692,0.704L172.392,302.656"/>
	<path class="st0" d="M735.662,239.753L735.662,239.753l16.624,12.89l-8.943-1.559l6.703,11.542l11.137,7.318l4.308,5.468
		l-7.377-4.208l1.766,6.463l-6.124-6.425l-5.688-7.634l-7.546-8.257l-3.956-5.957l-8.855-10.24l-9.385-7.078l-9.234-10.35
		l0.676-4.041l-5.063-3.203l0.871-1.332l5.929,4.767l8.435,7.004l6.862,7.442L735.662,239.753 M142.165,254.531L142.165,254.531
		l-9.063,0.264l-6.189-0.759l0.708-3.325l6.448-2.545l5.315,1.23l2.34,1.155l-0.228,2.067L142.165,254.531 M-654.483,106.633
		L-654.483,106.633l-0.549,2l6.968-4.668l6.786,2.694l-3.546,7.182l-7.638,2.12l-6.28-0.447l-10.152,6.242l-3.426,1.062
		l-2.704-0.854l1.177-2.775l-1.153-2.793l3.861-2.898l-1.417-1.735l-4.88,0.014l2.075-2.561l4.644-2.15l-6.178,0.634l-3.681,3.234
		l-6.277,2.243l43.271-24.166l-1.212,6.092l-2.829,7.741L-654.483,106.633 M682.393,78.202L682.393,78.202l-2.509,0.93l-4.029-1.713
		l-1.098-3.087L682.393,78.202 M-618.527,78.612L-618.527,78.612l-4.341-0.411l7.637-3.87l0.824-0.164l2.33,0.489l0.867,2.44
		l-1.756,0.733L-618.527,78.612 M548.883,82.29L548.883,82.29l-4.71,0.694l-7.547,0.158l-1.055-0.264l-0.753-2.903l3.031-1.101
		l8.123,1.81L548.883,82.29 M552.123,67.747L552.123,67.747l0.554,2.867l-5.71,0.115l-9.544-1.661l-2.515-2.069l7.088,0.181
		L552.123,67.747 M530.435,67.091L530.435,67.091l4.966,4.871l-11.575,1.286l-2.875,2.131l-12.328-3.338l-4.905-4.506l2.205-1.642
		l8.402-0.689L530.435,67.091 M258.678,126.902L258.678,126.902l-1.971,0.758l-13.283-0.367l-2.654-3.237l-7.994-1.676l-2.488-3.971
		l3.141-1.753l-2.138-4.021l4.197-6.609l-3.889-0.752l5.319-6.838l-2.842-3.288l5.799-4.224l8.801-5.225l10.734-1.92l4.093-2.979
		l6.024-1.278l4.442,2.721l-0.723,2.368l-9.952,4.231l-8.614,4.006l-7.042,7.493l-1.447,7.419l-2.085,7.35l3.979,6.09
		L258.678,126.902 M398.683,70.546L398.683,70.546l4.758,3.254l1.045-1.894l9.529-0.736l11.239,2.593l5.67,2.253l3.432,3.552
		l-1.255,2.336l-4.377,4.587l-0.237,2.259l5.282,0.554l6.979,1.23l1.556-1.584l6.791,4.186l-0.558-1.915l4.14-1.616l12.12-0.008
		l4.655,3.057l15.302-0.548l-6.275-5.106l8.504,0.375l5.204-0.637l9.914,2.848l7.11,4.044l1.645,3.019l11.019,4.723l8.851,2.036
		l-5.911-7.382l9.338,2.283l3.274-2.51l9.189,1.162l-0.124-2.159l6.657,0.18l-10.942-5.689l0.194-3.351l34.835,0.066l8.506,3.325
		l15.793,3.524l10.769-3.237l7.835-0.01l6.787,2.119l7.042,4.619l6.747,1.101l2.092-2.023l5.218-1.156l7.835,0.137l4.621-1.768
		l14.637,4.413l0.384-2.699l-9.211-3.399l-3.401-2.932l12.425-0.186l5.424-1.586l13.537,1.068l8.83,1.692l43.271,24.166l0.035,0.039
		l0.708,3.691l-4.816,0.469l8.432,2.731l10.536,4.835l4.291,1.387l4.7,2.587l1.934,1.92l-8.278,0.001l-1.496,7.071l-1.8,1.446
		l1.811,5.869l1.005,5.264l3.116,3.389l-11.692-3.66l-1.757,7.332l-5.126-2.233l0.55,3.672l-6.118,0.021l4.877,4.824l4.316,7.696
		l3.749,2.843l6.299,0.749l12.399,10.538l-3.267,0.97l5.562,6.397l5.329,2.828l-2.64,5.076l8.068,8.709l-4.133,2.942l6.896,7.833
		l1.202,8.113l-6.919-4.932l-13.29-10.623l-20.254-16.021l-9.622-10.444l-1.764-4.906l-3.805-3.392l4.023-2.703l-4.421-10.191
		l-3.034-8.405l-0.973-6.778l-10.589-10.147l-3.41,1.408l5.693,6.016l1.07,9.335l-14.246-7.93l-6.227,4.079l5.569,13.406l8.448,3.78
		l-6.3,3.374l-5.105,1.772l-5.821-5.204l-7.25-0.06l-0.695,4.309l-13.355,0.725l-10.63,4.18l1.807,16.181l0.743,19.758l7.675-0.01
		l6.496,4.377l5.765,1.066l-0.746-4.132l5.179-0.201l14.06,7.322l6.129,6.385l3.424,8.067l7.652,9.155l8.378,12.567l2.048,12.15
		l2.627,5.59l0.391,9.93l0.028,9.87l0.094,5.033l-3.436,5.404l-3.077,0.465l-5.723-3.472l-2.852,6.526l0.935,2.713l-1.606-1.304
		l-2.666-4.002l2.415-0.499l-5.574-9.37l-5.959-6.556l2.238-3.251l6.904,0.679l-2.287-7.986l-4.775-8.715l-0.342-3.066l-2.991-7.264
		l-5.96,3.262l-1.74,3.557l-7.214,0.875l-7.442-7.009l-9.778-4.78l-10.031-1.465l-7.544-7.274l-5.304-4.479l-4.328-3.059
		l-8.988-7.291l-6.237-2.298l-8.578-1.435l-5.822,0.909l-4.552,2.012l-0.834,4.185l3.903,1.512l3.267,4.174l-0.731,2.721
		l1.754,8.533l2.471,3.352l-3.268,5.546l-7.736-2.285l-5.247,1.227l-4.259-2.302l-3.423-0.532l-3.364,6.086l-5.505,1.889
		l-3.213,2.325l-6.902-0.665l-4.446,0.502l-5.418-3.629l-7.06-3.225l-5.462-0.559l-5.473,1.549l-3.696,1.82l-8.836-2.597
		l-4.429-5.615l-6.843-1.457l-4.894-0.512l-7.276-2.674l-0.254,8.278l4.594,4.31l-1.692,5.688l-8.165-1.345l-5.043,0.113
		l-5.25-3.295l-5.159,0.284l-5.531-2.004l-5.504,4.134l-5.99,7.236l-4.568,1.691l-1.634,0.762l-4.97-4.466l-5.881,1.46l-3.708-3.079
		l-4.188-1.237l-4.551-4.221l-3.393-1.179l-6.113,2.421l-8.892-3.918l-0.724,4.135l-20.156-18.495l-8.983-5.432l0.585-2.473
		l-8.605,7.862l-4.437,0.71l-1.513-4.138l-7.367-2.199l-4.178,2.128l-5.083-7.713l-9.301-1.126l-2.895,3.363l-10.811,3.434
		l-1.575,1.984l-17.074,3.545l-1.242,2.679l5.502,4.989l-3.982,2.188l1.687,2.01l-3.407,3.899l9.947,4.81l0.041,3.636l-7.159,0.002
		l-0.678,2.308l-7.77-3.623l-7.896,0.502l-4.288,3.412l-6.94-2.803l-12.694-4.771l-7.751,0.503l-7.99,8.591l0.906,5.532
		l-6.428-4.187l-1.84,8.428l1.9,1.487l-1.489,5.82l5.696,4.972l3.793-0.342l4.619,4.932l0.467,3.906l2.97,1.131l-1.259,4.564
		l-4.798,1.416l-3.404,7.973l6.506,7.023l0.637,5.113l7.896,8.73l-2.561,3.152l-0.513,1.955l-2.517-0.445l-4.719-4.486l-1.577-0.208
		l-3.776-1.653l-2.315-3.055l-5.363-1.435l-3.022,1.281l-1.235-1.378l-8.069-3.417l-8.152-1.006l-4.788-1.17l-0.483,0.909
		l-8.046-6.201l-6.62-2.691l-5.414-4.316l3.633-1.302l3.162-6.421l-3.529-2.907l7.102-3.285l-0.48-1.645l-4.442,1.342l-0.516-3.353
		l2.248-2.178l4.912-0.693l0.273-2.537l-2.049-4.124l1.215-4.007l-0.558-2.211l-8.087-2.235l-2.969,0.165l-3.908-3.44l-3.658,1.299
		l-7.017-2.476l-0.192-1.484l-2.472-3.217l-4.109-0.261l-0.888-2.326l0.95-1.556l-4.077-4.178l-5.055,0.857l-1.598-0.341
		L192,270.598l-1.935-0.259l-2.151-4.788l-1.649-2.469l0.823-0.726l4.067,0.164l1.607-1.693l-1.832-1.97l-3.602-1.242l0.028-1.365
		l-2.28-1.323l-4.049-4.849l0.649-2.053l-1.181-3.517l-5.105-1.68l-2.376,0.956l-1.046-1.85l-5.454-1.77l-2.372-4.401l-1.088-3.635
		l-2.624-1.68l1.597-2.429l-2.735-6.975l2.497-4.403l-0.964-1.295l4.443-4.272l-5.581-3.457l7.742-9.814l3.2-4.44l0.777-3.869
		l-7.813-4.97l0.651-4.931l-5.268-5.481l1.363-6.498l-7.05-8.406l2.479-5.743l-7.625-4.835l-0.697-5.257l3.132-0.769l6.135-3.175
		l3.446-2.71l7.98,4.338l11.714,1.453l18.354,7.947l4.423,3.439l1.997,4.96l-3.376,4.086l-6.314,2.222l-20.688-5.112l-2.847,1.038
		l8.491,5.285l1.26,3.465l2.424,7.644l6.285,2.116l3.995,1.839l-0.492-3.649l-3.571-3.137l1.923-2.92l11.928,4.321l3.081-1.946
		l-4.678-5.38l7.48-7.661l4.059,0.291l4.9,2.464l0.58-5.221l-5.146-4.317l0.362-4.535l-4.775-4.512l12.403,1.957l4.025,4.078
		l-4.89,1.124l1.628,4.147l4.288,2.425l5.849-1.875l-0.91-4.792l7.134-3.903l11.346-7.003l3.224,0.225l-1.889,4.685l5.434,0.541
		l1.709-2.67l7.51-0.57l4.436-3.364l6.921,4.221l1.986-5.131l-6.487-4.061l0.743-2.54l12.931,1.613l6.813,1.999l19.453,7.575
		l0.36-4.009l-6.411-3.645l-1.064-1.551l-5.199-0.444l-0.809-3.556l-5.586-5.603l-1.564-2.339l2.839-7.022l-1.907-6.765l1.791-1.589
		l11.118,1.334l3.598,3.99l0.47,6.118l3.937,2.177l4.663,5.021l5.703,10.074l7.288,4.212l1.423,5.007l-1.546,10.959l5.378,0.789
		l0.019-2.757l3.335-2.181l-1.221-3.708l1.241-3.724l-5.057-4.014l-1.347-4.952l-4.711-0.322l-3.638-4.006l-1.866-7.522
		l-9.035-5.623l3.301-5.318l-4.567-5.096l1.719-0.28l4.866,3.888l3.535,7.092l4.999,1.063l-5.477-5.118l4.155-3.252l7.4-0.895
		l10.03,3.636l-7.961-5.768l-6.405-7.625l5.076-1.867l8.861-0.283l6.914-1.483l-6.106-3.503l-0.072-4.934l3.803-0.478l3.449-3.969
		l8.088-1.594l-0.743-1.992l8.173-1.31l4.328,1.341l3.664-4.249l6.191-0.369l-2.308-3.021l-0.101-3.142l4.428-3.377l8.023,1.735
		l-2.453,2.02L398.683,70.546 M382.118,62.096L382.118,62.096l-14.939,3.976l-4.261-9.295l1.67-0.937l2.84,0.267l12.388,3.201
		L382.118,62.096 M195.967,55.75L195.967,55.75l-3.767,1.104l-2.593,0.648l0.207,1.216l-3.148,1.332l-4.437-1.63l0.635-2.346
		l-7.277-0.012l5.573-1.52l4.811-0.235l1.736,1.952l0.874-1.809l2.326-1.299l5.651,1.447L195.967,55.75 M361.501,59.452
		L361.501,59.452l-5.928,1.336l-10.932-1.354l-8.006-2.258l-7.61-4.74l-5.646-1.09l2.904-5.116l4.803-1.91l9.726,3.014l14.523,6.015
		L361.501,59.452"/>
	<path class="st0" d="M116.189,77.595L116.189,77.595l-7.04,3.19l-6.57-1.64l1.974-1.967l-2.626-2.36l6.776-1.608l2.057,2.785
		L116.189,77.595 M90.961,64.1L90.961,64.1l12.276,5.431l-7.932,3.066l-0.821,5.537l-2.795,1.454l-0.561,6.231l-4.248,0.345
		l-8.329-4.492l2.785-2.698l-5.54-2.118l-7.526-6.279l-3.316-5.858l8.723-2.758l2.21,2.61l4.74-0.15l0.83-2.575l4.81-0.312
		L90.961,64.1 M113.435,58.485L113.435,58.485l7.198,2.507l-3.738,4.104l-9.469,1.04l-10.167-1.104l-1.045-2.054l-4.792-0.071
		l-4.294-3.395l9.657-2.213l5.168,1.734l2.739-2.285L113.435,58.485"/>
	<path class="st0" d="M144.595,323.07L144.595,323.07l0.752,3.096l3.354,2.141l1.493-1.711l1.424,0.917l-1.099,1.289l1.126,1.297
		l-1.136,1.727l0.781,2.742l2.973,3.21l-1.806,2.383l-0.658,2.408l0.682,0.887l-0.782,1.075l-2.504,0.16l-1.805,0.465l-0.237-0.562
		l0.559-0.904l0.422-1.841l-0.765,0.052l-1.194-1.381l-0.926-0.342l-0.828-1.188l-1.057-0.455l-0.873-1.052l-0.928,0.429
		l-0.504,2.508l-1.243,0.558l0.383-0.651l-2.211-1.535l-1.851-0.788l-0.886-1.032l-1.551-1.273l1.238-0.349l0.45-3.549l-2.86-2.861
		l1.025-3.326l-1.934,0.045l1.782-2.857l-1.898-2.122l-1.57-2.897l3.863-2.03l3.336,0.288l3.182,2.916l0.848,2.386L144.595,323.07"
		/>
	<path class="st0" d="M129.687,290.206L129.687,290.206l2.893,2.629l2.869-1.656l2.525,0.736l3.587-1.119l5.261,2.814l-1.193,1.981
		l-0.645,3.048l-1.018,0.787l-5.831-2.202l-1.65,0.484l-1.023,1.787l-2.343,0.973l-0.614-0.473l-2.415,1.202l-2.049,0.25
		l-0.268,1.516l-4.296,0.977l-2.005-0.796l-2.835-1.893l-0.758-2.599l0.329-0.96l0.581-1.663l2.31,0.099l1.694-0.8l0.071-0.701
		l0.956-0.37l0.167-1.715l1.152-0.342l0.66-1.364l1.537-0.03l0.339,0.45L129.687,290.206"/>
	<path class="st0" d="M117.544,313.456L117.544,313.456l-4.041,2.044l-0.27,3.043l-1.784,0.789l0.183,2.101l-2.099-0.125l-1.9-1.21
		l-0.881,1.278l-3.726-0.222l1.136-0.693l-1.497-3.189l0.311-3.708l4.406,0.541l2.532-1.733l4.597-0.236l0.898-1.28l0.893,0.073
		L117.544,313.456"/>
	<path class="st0" d="M121.204,146.948L121.204,146.948l7.491,4.983l2.393,11.547l2.016,2.89l-7.015,2.266l-3.294,5.312l1.462,4.585
		l-6.067,6.155l-7.709,6.593l-1.922,10.624l3.951,5.246l4.982,4.101l-3.198,8.538l-4.693,1.826l-0.387,12.638l-1.992,7.075
		l-5.962-0.656l-2.201,5.991l-5.636,0.405l-2.139-7.089l-4.73-8.489l-4.449-10.595l1.733-4.349l3.452-5.188l0.728-8.848
		l-3.271-3.778l-1.18-9.974l2.226-7.075l4.408,0.081l1.216-2.994l-1.881-2.548l5.521-10.645l3.187-8.379l2.034-5.379l4.021-0.032
		l0.461-4.195l8.019,1.08l-0.248-4.946l2.495-0.351L121.204,146.948"/>
	<path class="st0" d="M415.601,350.595L415.601,350.595l1.447,2.089l2.175-0.301l-1.244,2.452l-6.307-1.012l0.834,4.43l5.724-0.858
		l7.502,2.179l9.929-1.643l3.64,7.03l1.554-0.857l3.877,1.59l0.751,2.994l2.187,4.34l-5.686,0.249l-3.967-0.394l-2.412,3.589
		l-2.23,0.87l-1.459,1.696l-2.92-2.417l-1.383-6.464l-1.772-0.29l-0.103-2.368l-3.493-1.61l-1.57,2.768l0.324,3.114l-0.522,1.162
		l-3.343-0.018l-0.784,3.582l-2.279-1.402l-3.319,2.625l-1.95-0.864l0.922-7.873l-2.834-5.644l-4.547-1.652l0.428-3.425l4.659,0.162
		l1.307-4.338l0.203-4.98l6.656-2.108L415.601,350.595"/>
	<path class="st0" d="M357.401,345.906L357.401,345.906l2.498,1.477l5.75-0.582l2.203,1.309l4.855,7.744l7.693,5.016l4.559,3.449
		l6.77,3.508l8.225,2.974l1.134,4.684l-1.73-0.17l-3.162-1.94l-0.133,2.755l-4.277,1.66l0.475,6.155l-2.553,2.442l-4.121,1.315
		l-0.322,3.505l-3.981,1.17l-6.403-2.697l-2.032-6.405l-4.219-0.126l-7.98-6.527l-4.628-0.678l-7.042-3.647l-4.097-0.567
		l-2.096,1.499l-3.752-0.097l-2.958,4.477l-4.559,1.627l-2.217-5.342l-0.993-7.973l-4.878-2.43l0.205-5.245l-3.734-0.323
		l-0.296-6.436l5.578,1.689l4.187-2.594l-5.078-4.417l-2.63-4.285l-3.866,2.085l0.793,5.576l-2.876-4.857l1.769-2.604l5.722-1.792
		l4.182,1.995l5.294,5.816l2.685-0.47l6.083-0.327l-1.891-3.793l3.905-2.79l3.313-4.587l8.354,3.73L357.401,345.906"/>
	<path class="st0" d="M231.775,350.483L231.775,350.483l8.321,2.737l6.153-1.319l4.817,0.556l5.697-4.11l5.72-0.514l5.967,3.57
		l1.449,2.637l0.188,3.696l4.439,1.77l2.592,2.151l-3.351,2.258l3.352,8.636l-0.654,2.373l4.145,5.989l-2.445,1.348l-2.302-1.879
		l-6.655-0.815l-2.192,1.235l-6.151,1.329l-3.03-0.058l-5.979,2.985l-4.602,0.125l-3.196-1.359l-5.849,2.233l-2.048-1.431
		l0.307,4.221l-1.269,1.686l-1.274,1.686l-2.546-3.385l1.723-2.88l-3.327,0.712l-4.928-1.645l-3.269,4.42l-8.421,1.006l-5.056-3.969
		l-6.077-0.148l-0.919,3.152l-3.781,0.959l-5.892-3.927l-6.11,0.232l-4.137-7.445l-4.529-4.118l2.05-5.901l-3.913-3.545l5.272-7.304
		l8.417-0.446l1.558-5.769l10.549,0.803l5.85-5.021l6.011-2.263l8.955-0.356L231.775,350.483 M179.338,356.399L179.338,356.399
		l-4.103,4.132l-2.134-3.481l-0.106-1.556l1.203-0.866l1.129-4.742l-2.895-1.951l5.25-2.462l4.808,0.929l1.019,2.885l5.077,2.349
		l-0.754,1.864l-6.443,0.528L179.338,356.399"/>
	<path class="st0" d="M199.848,267.988L199.848,267.988l4.077,4.178l-0.95,1.556l0.888,2.326l4.109,0.261l2.472,3.217l0.192,1.484
		l7.017,2.476l3.658-1.299l3.908,3.44l2.969-0.165l8.087,2.235l0.558,2.211l-1.215,4.007l2.049,4.124l-0.273,2.537l-4.912,0.693
		l-2.248,2.178l0.516,3.353l-4.057,0.713l-3.012,2.529l-4.84,0.521l-4.014,2.92l1.15,4.681l2.917,1.757l5.323-0.584l-0.541,2.716
		l-5.585,1.446l-6.49,4.529l-3.224-1.467l0.585-3.568l-6.172-2.077l0.699-1.465l4.646-2.619l-1.826-1.691l-8.518-1.722l-0.826-2.801
		l-4.722,1.032l-1.301,4.189l-3.254,5.65l-2.6-1.245l-2.319,1.26l-2.569-1.342l1.218-0.843l0.549-2.601l1.091-2.429l-0.575-1.341
		l1.011-0.623l0.677,1.032l3.141,0.158l1.309-0.585l-1.101-0.743l0.197-1.13l-2.133-1.877l-1.248-3.132l-2.097-1.193l-0.022-2.559
		l-2.669-1.978l-2.183-0.239l-4.185-2.27l-3.341,0.811l-1.078,1.133l-2.195,0.04l-1.061,1.783l-3.749,0.792l-1.627,1.186
		l-2.666-1.797l-3.346,0.028l-3.33-0.78l-2.052,1.647l-0.61-2.011l-3.137-2.001l0.645-3.048l1.193-1.981l1.184,0.421l-1.758-3.359
		l3.851-6.333l2.419-0.919l0.257-2.12l-3.465-6.521l2.378-0.336l2.476-2.088l3.884-0.239l5.187,0.492l5.924,1.693l4.006,0.069
		l2.084,1.047l1.675-1.352l1.627,1.73l4.504-0.461l2.143,0.682l-0.358-3.794l1.249-1.687l4.233-0.548l1.935,0.259l0.938-1.742
		l1.598,0.341L199.848,267.988"/>
	<path class="st0" d="M356.055,323.045L356.055,323.045l7.137,6.632l5.895-1.374l8.917-0.994l8.13,5.273l1.992,7.658l2.632-0.062
		l3.017,6.197l6.938-0.057l2.598,3.549l2.001-0.139l0.647-5.57l5.353-5.652l2.596-1.558l1.839,0.675l-2.862,5.161l4.905,2.688
		l3.205-2.088l7.716,3.721l-5.126,5.84l-4.362-0.562l-2.175,0.301l-1.447-2.089l-0.005-3.596l-6.656,2.108l-0.203,4.98l-1.307,4.338
		l-4.659-0.162l-0.428,3.425l4.547,1.652l2.834,5.644l-0.922,7.873l-4.618-1.446l-3.095,0.074l-1.134-4.684l-8.225-2.974
		l-6.77-3.508l-4.559-3.449l-7.693-5.016l-4.855-7.744l-2.203-1.309l-5.75,0.582l-2.498-1.477l-2.265-6.044l-8.354-3.73
		l-3.313,4.587l-3.905,2.79l1.891,3.793l-6.083,0.327l-7.722-27.961l12.243-5.02l1.178,0.617l9.793,5.091L356.055,323.045"/>
</g>
<g id="lakes">
	<path class="st1" d="M553.775,244.143L553.775,244.143l-0.904-1.04l1.284-2.054l-0.016-1.608l0.661-1.191l0.242-2.761l-0.57-3.166
		l-1.094-6.073l-2.167-3.872l0.326-1.605l2.004-0.06l3.041,5.597l1.249,1.97l1.253,2.938l2.075,3.987l0.61,1.553l-1.872-1.105
		l-0.04,2.746l1.245,0.361l0.766,1.377l-1.079,0.59l0.472,2.696l-0.639,1.836l-1.431,1.427l-2.689,1.061l-1.137,2.361l-0.309,2.282
		l-1.192,2.041l-1.707,0.639l-2.674-0.077l-3.059-0.525l-1.345-1.001l0.558-1.013l2.565-0.234l2.44-1.349l0.593-2.305l1.149-2.037
		l0.809-0.881L553.775,244.143"/>
	<path class="st1" d="M294.474,345.182L294.474,345.182l-7.896-8.731l-0.637-5.113l-6.506-7.023l3.403-7.973l4.798-1.416
		l1.259-4.564l4.47-1.755l5.152-3.541l4.932,1.683l5.113-0.561l2.233,4.643l1.069,7.418l-4.907-0.962l-4.163,1.389l1.221,5.54
		l-5.344-0.54l0.793,2.46l3.415,1.814l4.095,6.718l6.857,2.367l1.681,2.605l-0.548,3.205l0.753,1.838l2.876,4.857l-0.793-5.576
		l3.866-2.085l2.63,4.285l5.078,4.417l-4.187,2.594l-5.578-1.689l0.296,6.436l3.734,0.323l-0.205,5.245l4.878,2.43l0.993,7.973
		l2.217,5.342l-0.147,1.795l-8.279,2.279l-8.201-1.074l-4.644-3.695l-5.591-1.427l-2.888-5.542l-0.92-3.751l1.652-1.832l0.385-2.684
		l-0.316-5.917l4.369-0.75l-2.138-1.991l-2.621-0.275l-3.964-5.288L294.474,345.182L294.474,345.182L294.474,345.182"/>
	<path class="st1" d="M166.908,201.651L166.908,201.651L166.908,201.651l3.696-4.234l8.786,4.735l2.767,3.512l-0.303,1.222
		l-1.086-0.361l0.501,2.438l-4.133-0.093l-0.341,2.389l-1.884-0.007l-0.354-1.643l-3.463-3.564l-0.502-1.596L166.908,201.651"/>
	<path class="st1" d="M443.061,300.496L443.061,300.496L443.061,300.496l1.638,0.711l-0.945,2.206l-2.06,0.689l-6.692-0.379
		l-8.562-0.383l-1.261-1.201l0.312,1.538l-2.35,0.646l0.167,2.3l-2.246,0.93l2.033,7.784l-5.245-4.543l-0.552-1.496l0.937-1.658
		l-0.8-1.28l1.702-0.262l-0.281-1.717l3.183-3.201l6.61-0.087l5.454,0.752l3.474-0.236l2.814,1.235l-0.086-1.471L443.061,300.496"/>
	<path class="st1" d="M351.057,324.339L351.057,324.339l-1.263,0.856l-4.213-1.435l0.081-4.825l-0.368-1.465l-2.514-1.316l0.41,2.08
		l0.825,2.778l-1.085,4.06l-1.698-1.939l-0.926-3.175l0.764-4.693l-0.413-2.951l2.099-0.489l2.275,1.701l-1.285-4.555l1.23,0.35
		l2.217,1.111l0.495,1.587l-0.741,0.635l0.116,2.205l1.362-0.459l2.44,5.957L351.057,324.339"/>
	<path class="st1" d="M95.78,218.134L95.78,218.134L95.78,218.134l0.112,0.892l-0.174,1.384l-2.797,2.24l-2.075,0.771l-1.751,0.039
		l0.192-2.031l-0.142-0.783l0.776-0.561l1.528-0.314l0.699-1.026l1.715-1.579L95.78,218.134"/>
	<path class="st1" d="M191.625,193.024L191.625,193.024l-2.955-2.899l-1.214-0.517l-1.732-0.056l2.901,1.991l1.921,1.695
		l-0.987,0.503l-0.511,0.408l-1.409-1.135l-1.248-1.139l0.615,1.663l-1.824-0.461l0.041,0.593l1.684,2.612l2.29,2.316l1.683,1.142
		l2.51,2.254l-1.749-0.161l-1.558,0.03l2.536,1.195l3.337-0.601l0.763-1.996l-2.42-3.256L191.625,193.024L191.625,193.024"/>
</g>
<g id="borders">
	<path class="st2" d="M723.522,351.519L723.522,351.519l-0.068-0.755l2.512,0.06l0.041-3.8l3.491-0.748l1.933-0.745l-0.352-2.005"/>
	<path class="st2" d="M703.778,335.153L703.778,335.153l1.257-5.49l3.127-4.82l0.074-5.962l3.952,2.222l4.586-0.174l-3.407-4.082
		l5.634-4.238l-0.89-4.635l6.297,4.294l1.606,1.304"/>
	<path class="st2" d="M478.368,278.22L478.368,278.22l4.568-1.691l5.99-7.235l5.504-4.134l5.531,2.004l5.159-0.284l5.25,3.295
		l5.043-0.113l8.165,1.345l1.693-5.688l-4.594-4.31l0.254-8.278l7.276,2.674l4.894,0.512l6.843,1.457l4.429,5.615l8.836,2.597
		l3.696-1.82l5.473-1.549l5.462,0.559l7.06,3.225l5.418,3.629l4.446-0.502l6.902,0.665l3.213-2.325l5.505-1.889l3.364-6.086
		l3.423,0.532l4.259,2.302l5.247-1.227"/>
	<path class="st2" d="M476.734,278.982L476.734,278.982l1.634-0.762l3.964,5.219l6.218,3.747l8.6,2.358l6.534,5.906l2.364,9.083
		l3.421,3.197l6.734,0.887l7.442,0.582l8.535,4.346l3.604,0.625l5.76,6.935l5.222,4.366l5.675-0.593l11.608,0.946l6.411-1.596
		l5.712,0.763l10.054,4.121l6.32-0.497l3.524,2.237l3.963-4.658l6.985-3.383l7.6-0.942l4.547-3.252l1.381-4.487l2.103-2.931
		l-2.285-2.49l-3.332-2.837l-0.257-5.236l3.247,0.441l6.108,1.094l2.532-4.585l5.764-3.732l0.407-5.471l2.056-2.546l6.465-1.751
		l4.443,0.472l-1.291-2.802l-8.033-4.929l-5.552-2.055l-1.832,3.224l-5.597-0.71l-2.118,1.254l-3.32-3.018l-1.724-8.012
		l-1.645-6.009l7.736,2.285l3.268-5.546l-2.471-3.352l-1.754-8.533l0.731-2.721l-3.267-4.174l-3.903-1.512l0.834-4.185l4.552-2.012
		l5.822-0.909l8.578,1.435l6.237,2.298l8.988,7.291l4.328,3.059l5.304,4.479l7.544,7.274l10.031,1.465l9.778,4.78l7.442,7.009
		l7.213-0.876l1.74-3.557l5.96-3.262l2.991,7.265l0.342,3.066l4.775,8.715l2.288,7.986l-6.904-0.68l-2.238,3.251l5.959,6.556
		l5.574,9.37l-2.415,0.499l2.666,4.002"/>
	<path class="st2" d="M435.661,357.932L435.661,357.932l3.64,7.03l1.554-0.857l3.877,1.59l0.751,2.994l2.187,4.34"/>
	<path class="st2" d="M463.23,333.807L463.23,333.807l-0.117,1.698l-6.856,4.612l-0.804,3.145l-6.559,1.271l-0.33,4.999l-6.063-0.74
		l-3.223,1.684l-3.969,3.871l1.332,1.757l-0.98,1.827l-9.929,1.643l-7.502-2.179l-5.724,0.858l-0.834-4.43l6.307,1.012l1.244-2.452"
		/>
	<path class="st2" d="M413.908,336.949L413.908,336.949l1.839,0.675l-2.862,5.161l4.905,2.688l3.205-2.088l7.716,3.721l-5.126,5.84
		l-4.362-0.562l-2.175,0.301l-1.447-2.089l-0.005-3.596l-6.656,2.108l-0.203,4.98l-1.307,4.338l-4.659-0.162l-0.428,3.425
		l4.547,1.652l2.834,5.644l-0.922,7.873l-4.618-1.446l-3.095,0.074l-1.134-4.684l-8.225-2.974l-6.77-3.508l-4.559-3.449
		l-7.693-5.015l-4.855-7.744l-2.203-1.309l-5.75,0.582l-2.498-1.477l-2.265-6.044l-8.354-3.73l-3.313,4.587l-3.905,2.79l1.891,3.793
		l-6.083,0.327"/>
	<path class="st2" d="M288.896,310.363L288.896,310.363l-2.97-1.131l-0.467-3.906l-4.619-4.932l-3.793,0.342l-5.696-4.972
		l1.489-5.82l-1.9-1.487l1.84-8.428l6.428,4.187l-0.906-5.532l7.99-8.591l7.751-0.503l12.694,4.771l6.94,2.803l4.288-3.412
		l7.896-0.502l7.77,3.623l0.678-2.308l7.159-0.002l-0.041-3.636l-9.947-4.81l3.407-3.899l-1.687-2.01l3.982-2.188l-5.502-4.989
		l1.242-2.679l17.074-3.545l1.575-1.985l10.811-3.434l2.895-3.363l9.301,1.126l5.083,7.713l4.178-2.128l7.367,2.199l1.513,4.138
		l4.437-0.71l8.605-7.862l-0.585,2.473l8.983,5.432l20.156,18.495l0.724-4.135l8.892,3.918l6.113-2.421l3.393,1.179l4.551,4.221
		l4.188,1.237l3.708,3.079l5.881-1.46l4.97,4.466l-1.304,5.331l-3.824,0.995l3.387,7.658l-1.225,3.635l-11.241-1.856l2.315,13.896
		l-1.925,1.863l-9.018,3.665l10.042,13.016l-2.843,2.2l2.104,4.345l-0.149,0.028l-3.551-0.97l-3.706-2.605l-8.157-0.369
		l-8.859,0.263l-1.619,0.944l-8.71-2.818l-2.439,1.736l0.765,4.552l-9.668-2.193l-3.134,1.249l-0.066,3.402l-2.596,1.558
		l-5.353,5.652l-0.647,5.57l-2.001,0.139l-2.598-3.549l-6.938,0.057l-3.017-6.197l-2.632,0.062l-1.992-7.658l-8.13-5.273
		l-8.917,0.994l-5.895,1.374l-7.137-6.632l-16.163-8.397l-12.243,5.02l7.722,27.961l-2.685,0.47l-5.294-5.816l-4.182-1.995
		l-5.722,1.792l-1.769,2.604"/>
	<path class="st2" d="M277.119,361.655L277.119,361.655l1.426,2.832l3.459,3.419l3.983,0.903"/>
	<path class="st2" d="M115.027,143.374L115.027,143.374l6.177,3.574l7.491,4.983l2.393,11.547l2.016,2.89"/>
	<path class="st2" d="M282.587,345.15L282.587,345.15l1.577,0.208l4.719,4.486l2.517,0.445l0.513-1.955l2.561-3.152"/>
	<path class="st2" d="M301.771,371.57L301.771,371.57l-1.3,0.418l-4.253-3.87l1.129-3.805l-2.087-2.176l-1.945,0.62l-5.372,5.775"/>
	<path class="st2" d="M275.732,350.02L275.732,350.02l0.002,0.007l1.578,1.94l2.343,1.251l-0.713,1.929l3.438,2.514l-1.061,2.455
		l2.741,1.994l2.716,1.171l1.166,5.25l-1.956,0.278l-3.109-4.319l-0.205-1.169l-2.427,0.084l-2.025-1.986l-1.103,0.236"/>
	<path class="st2" d="M147.704,143.022L147.704,143.022l0.697,5.257l7.625,4.835l-2.479,5.743l7.05,8.406l-1.363,6.498l5.268,5.481
		l-0.651,4.931l7.813,4.97l-0.777,3.869l-3.2,4.44l-7.742,9.814"/>
	<path class="st2" d="M156.971,139.078L156.971,139.078l-6.135,3.175l-3.132,0.769l0.392-5.294l-5.937-2.856l-5.662,2.676
		l-0.743,5.535l-3.198,3.398l-4.81-1.723l-5.306,0.473l-5.32-3.883l-2.093,2.024l-2.495,0.351l0.191,3.765"/>
	<path class="st2" d="M112.723,147.49L112.723,147.49l0.057,1.181l-8.019-1.08l-0.461,4.195l-4.021,0.032l-2.034,5.379l-3.187,8.379
		l-5.521,10.645l1.881,2.548l-1.216,2.994l-4.408-0.081l-2.226,7.075l1.18,9.974l3.271,3.778l-0.728,8.848l-3.452,5.188
		l-1.733,4.349"/>
	<path class="st2" d="M245.384,334.225L245.384,334.225l0.483-0.909l4.788,1.17l8.152,1.007l8.068,3.417l1.235,1.378l3.022-1.281
		l5.363,1.435l2.315,3.055l3.776,1.653l-1.184,1.085l3.542,4.017l-0.555,0.909l-3.028-0.364l-4.503-2.059l-1.078,1.274l-7.329,1.391
		"/>
	<path class="st2" d="M256.763,348.346L256.763,348.346l5.72-0.514l5.967,3.57l1.449,2.637l0.188,3.696l4.439,1.77l2.592,2.151
		l-3.351,2.258l3.352,8.636l-0.654,2.373l4.145,5.989l-2.445,1.348l-2.302-1.879l-6.655-0.815l-2.192,1.235l-6.151,1.329
		l-3.03-0.058l-5.979,2.985l-4.602,0.125l-3.195-1.359l-5.849,2.233l-2.048-1.431l0.307,4.221l-2.543,3.372"/>
	<path class="st2" d="M145.374,355.752L145.374,355.752l0.074,1.979l-1.685,1.114l-0.109,2.45l-2.242,3.681"/>
	<path class="st2" d="M172.995,355.495L172.995,355.495l1.203-0.866l1.129-4.742l-2.895-1.951"/>
	<path class="st2" d="M155.582,351.881L155.582,351.881l-1.016,0.265l-0.765,1.325l-2.98-0.105l-1.926,1.673l-3.522,0.713
		l-2.443-1.804l-1.076-3.218l0.453-2.57"/>
	<path class="st2" d="M182.49,346.403L182.49,346.403l-4.808-0.929l-5.25,2.462l0.387,3.752l-4.884,0.79l-4.143-2.572l-4.145,2.134
		l-4.065-0.159l-0.908-4.973l-2.976-2.377"/>
	<path class="st2" d="M190.322,269.987L190.322,269.987l1.935,0.259l0.938-1.742l1.598,0.341l5.055-0.857l4.077,4.178l-0.95,1.556
		l0.888,2.326l4.109,0.261l2.472,3.217l0.192,1.484l7.017,2.476l3.658-1.299l3.908,3.44l2.969-0.165l8.087,2.235l0.558,2.211
		l-1.215,4.007l2.049,4.124l-0.273,2.537l-4.912,0.693l-2.248,2.178l0.516,3.353"/>
	<path class="st2" d="M187.688,321.488L187.688,321.488l-2.6-1.245l-2.319,1.26l-2.569-1.342l1.218-0.843l0.549-2.601l1.091-2.429
		l-0.575-1.341l1.011-0.623l0.677,1.032l3.141,0.158l1.309-0.585l-1.101-0.743l0.197-1.13l-2.133-1.877l-1.248-3.132l-2.097-1.193
		l-0.022-2.559l-2.669-1.978l-2.183-0.239l-4.185-2.27l-3.341,0.811l-1.078,1.133l-2.195,0.04l-1.061,1.783l-3.749,0.792
		l-1.627,1.186l-2.666-1.797l-3.346,0.028l-3.33-0.78l-2.052,1.647"/>
	<path class="st2" d="M151.645,330.099L151.645,330.099l-1.136,1.727l0.781,2.742l2.973,3.21l-1.806,2.383l-0.658,2.408l0.682,0.887
		l-0.782,1.075l-2.504,0.16l-2.993,0.771l-3.098,1.208l-0.097,1.544l-0.698-0.053l-0.624-2.723l-1.373-0.754l-1.346-2.005
		l-1.398,0.684l-0.476-1.411l-2.017,3.734l0.579,2.39"/>
	<path class="st2" d="M183.816,333.541L183.816,333.541l-3.267-0.733l-4.272-2.667l-6.087,1.861l-2.425,1.965l-7.946-0.269
		l-4.265-1.11l-2.021,0.582l-1.888-3.071l-1.126-1.297l1.099-1.289l-1.424-0.917l-1.493,1.711l-3.354-2.141l-0.752-3.096
		l-3.431-1.724l-0.848-2.386l-3.182-2.916"/>
	<path class="st2" d="M180.199,320.161L180.199,320.161l-1.441-3.418l0.092-3.226l-0.653-3.301l-3.683-4.418l-2.122-3.142
		l-1.94-2.201l-1.692-0.704"/>
	<path class="st2" d="M131.621,325.662L131.621,325.662l1.934-0.045l-1.025,3.326l2.86,2.861l-0.45,3.549l-2.183,1.048l-1.598,1.77
		l-0.429,4.148"/>
	<path class="st2" d="M117.544,313.456L117.544,313.456l-4.041,2.044l-0.27,3.043l-1.784,0.789l0.183,2.101l-2.099-0.124l-1.9-1.21
		l-0.881,1.278l-3.726-0.222"/>
	<path class="st2" d="M146.823,293.611L146.823,293.611l-1.193,1.981l-0.645,3.048l-1.018,0.787l-5.831-2.202l-1.65,0.484
		l-1.023,1.787l-2.343,0.973l-0.614-0.473l-2.415,1.202l-2.049,0.25l-0.268,1.516l-4.296,0.977l-2.005-0.796l-2.835-1.893"/>
	<path class="st2" d="M129.934,317.786L129.934,317.786l1.57,2.897l1.898,2.122l-1.782,2.857l-2.57-1.635l-3.678,0.149l-4.692-1.196
		l-2.476,0.194l-1.028,1.573l-2.053-1.706l-0.87,3.133l2.899,3.489l1.35,2.318l2.7,2.782l2.192,1.642l2.301,3.12l5.036,2.793
		l-0.486,1.286"/>
	<path class="st2" d="M144.985,298.64L144.985,298.64l3.137,2.001l0.61,2.011l-3.001,1.628l-1.89,5.139l-2.619,5.148l-4.089,1.478
		l-3.336-0.288l-3.863,2.03l-1.876,1.148l-4.514-1.393l-4.242-3.179l-1.758-0.907l-1.242-2.527l-0.893-0.073"/>
	<path class="st2" d="M118.21,297.692L118.21,297.692l-0.329,0.96l0.758,2.599l-0.117,3.077l-2.945,0.049l1.157,1.618l-1.326,4.86
		l-0.898,1.28l-4.597,0.236l-2.532,1.733l-4.406-0.541"/>
	<path class="st2" d="M127.338,290.806L127.338,290.806l-1.537,0.03l-0.66,1.364l-1.152,0.342l-0.167,1.715l-0.956,0.37
		l-0.071,0.701l-1.694,0.8l-2.31-0.099l-0.581,1.663l-2.524-1.392l-2.402,0.418l-4.222-2.25l-1.776,0.581l-2.673,3.106l-4.043-2.382
		"/>
	<path class="st2" d="M132.424,241.514L132.424,241.514l5.224-2.399l8.189,0.336l4.632-0.834l0.935,1.55l2.658,0.432l5.288,3.552
		l1.035,3.357l-3.613,2.488l-0.453,4.266l-4.925,2.935l-4.796,0.036"/>
	<path class="st2" d="M134.327,247.815L134.327,247.815l5.315,1.23l2.34,1.155l-0.228,2.067l0.669,1.911"/>
	<path class="st2" d="M61.067,286.644L61.067,286.644l1.086,1.693l-0.176,3.296l-1.485,0.165l-1.176-0.648"/>
	<path class="st2" d="M61.472,281.564L61.472,281.564l-0.405,5.081l-1.33,0.289l-0.422,4.217l-4.609-3.41l-2.625,0.594l-3.664-3.533
		l-2.438-3.01l-2.377-0.119l-0.778-2.641"/>
	<path class="st2" d="M64.467,261.417L64.467,261.417l1.043,2.536l-0.963,6.887l-1.168,2.835l-3.041,0.017l1.134,7.871l-2.865-1.743
		l-3.322-3.277l-4.671,1.577l-3.737-0.58"/>
	<path class="st2" d="M166.772,239.813L166.772,239.813l5.454,1.77l1.046,1.85l2.376-0.956l5.105,1.679l1.181,3.518l-0.649,2.053
		l4.049,4.849l2.28,1.323l-0.028,1.365l3.602,1.241l1.832,1.97l-1.607,1.693l-4.067-0.164l-0.823,0.726l1.649,2.469l2.151,4.788
		l-4.233,0.548l-1.249,1.687l0.358,3.794l-2.143-0.682l-4.504,0.461l-1.627-1.73l-1.675,1.352l-2.084-1.047l-4.006-0.069
		l-5.924-1.693l-5.187-0.492l-3.884,0.24l-2.476,2.088l-2.378,0.336"/>
	<path class="st2" d="M161.083,214.996L161.083,214.996l0.964,1.295l-2.497,4.402l2.734,6.975l-1.597,2.429"/>
	<path class="st2" d="M146.081,227.992L146.081,227.992l3.827-1.408l2.243,0.879l4.596,2.704l3.94-0.07l2.624,1.68l1.088,3.635
		l2.372,4.401l-4.685,3.012l-2.738,1.326"/>
	<path class="st2" d="M127.171,253.685L127.171,253.685l6.189,0.759l9.063-0.264l2.649,0.76l1.526,2.295l0.7,3.322l1.798,2.835
		l0.405,2.998l-2.79,1.588l2.039,3.457l0.562,3.346l3.465,6.521l-0.257,2.12l-2.419,0.919l-3.851,6.333l1.758,3.359l-1.184-0.421
		l-5.261-2.814l-3.587,1.119l-2.525-0.736l-2.869,1.656l-2.893-2.629l-2.011,1.05l-0.339-0.45l-2.756-3.671l-3.864-0.405
		l-0.722-2.348l-3.593-0.797l-0.579,1.951l-2.929-1.522l0.127-2.072l-3.877-0.61l-2.63-2.393"/>
	<path class="st2" d="M85.049,310.822L85.049,310.822l3.253,1.045l0.53-1.435l5.12-1.348l1.344,2.605l7.678,1.874l-0.311,3.708
		l1.497,3.189"/>
	<path class="st2" d="M80.339,306.106L80.339,306.106l0.271,1.332l-0.711,1.845l2.451,1.353l2.699,0.186l-0.252,3.085l-2.263,1.284
		l-3.96-0.917l-1.005,3.038l-2.515,0.254l-0.97-1.186l-2.869,2.565l-2.547,0.37l-2.342-1.599"/>
	<path class="st2" d="M100.258,259.066L100.258,259.066l1.499,3.812l-1.22,2.021l2.052,2.66l1.597,4.007l-0.169,2.596l2.497,4.777
		l-2.205,0.809l-1.415-0.85l-1.16,1.444l-3.549,1.492l-1.757,1.891l-3.606,1.671l1.055,2.226l0.767,3.165l2.764,1.783l3.161,3.204
		l-1.577,3.483l-1.803,0.971l1.082,4.892l-0.4,1.282l-1.739-1.525l-2.525-0.209l-3.661,1.378l-4.642-0.285l-0.637,1.989
		l-2.767-2.069l-1.561,0.425l-5.724-2.263l-1.002,1.639l-4.459-0.028"/>
	<path class="st2" d="M61.977,291.633L61.977,291.633l2.51,1.957l7.52,1.345l-2.407,5.161l-0.446,5.358l-1.39,1.291l-2.416-0.68
		l0.237,1.909l-3.709,4.24l0.028,3.403l2.488-1.188l1.932,3.288l-0.145,2.125l1.665,2.815l-1.77,2.298l1.577,5.809l2.946,0.94
		l-0.497,3.265"/>
	<path class="st2" d="M78.811,250.041L78.811,250.041l-3.078,1.167l-3.775-0.966"/>
	<path class="st2" d="M19.751,337.094L19.751,337.094l2.132,2.924l9.973,3.419l1.969-1.625l6.131,3.395l6.291-0.984"/>
</g>
<g id="path">
	<path class="st3" d="M152.345,137.924c-0.005,0.005-0.01,0.007-0.016,0.007c0,0.064-0.03,0.192-0.07,0.292
		c0.415,0.093,0.853-0.009,1.015,0.495c0.109,0.34,0.077,0.678,0.066,1.003c0.56-0.294,1.056-0.215,1.574-0.014
		c0.32,0.124,0.78,0.272,1.109,0.334c0.627,0.119,0.687,0.126,1.015-0.329c0.386-0.536,0.343-0.509,0.99-0.251
		c0.142,0.057,0.453,0.186,0.675,0.279c0.285,0.118,0.35,0.035,0.606-0.008c0.318-0.053,0.552-0.158,0.873-0.088
		c0.425,0.092,0.85,0.338,1.099,0.547c0.124,0.104,0.575,0.308,0.631,0.437c0.123,0.282-0.225,0.273-0.074,0.553
		c0.068,0.125,0.571,0.394,0.704,0.474c0.241,0.146,0.472,0.239,0.738,0.323c0.526,0.168,1.375,0.472,1.878,0.701
		c0.101,0.046,0.196,0.092,0.264,0.134c0.173,0.107,0.355,0.236,0.483,0.397c0.033,0.042-0.055,0.22-0.037,0.245
		c0.199,0.276,0.462,0.347,0.66,0.601c0.247,0.317,0.563,0.55,0.767,0.888c0.07,0.116,0.094,0.323,0.254,0.506
		c0.301,0.344,0.329,0.439,0.514,0.848c0.286,0.634,0.702,1.016,0.79,1.618c0.038,0.258-0.028,0.469-0.011,0.716
		c0.017,0.25,0.21,0.499,0.194,0.765c-0.009,0.15,0.048,0.15-0.013,0.253c-0.069,0.118-0.264,0.195-0.384,0.255
		c-0.046,0.023-0.127-0.07-0.186-0.039c-0.245,0.128-0.467,0.376-0.681,0.553c-0.696,0.574-0.351,1.337-0.032,1.944
		c0.285,0.543,0.188,0.798-0.281,1.117c-0.186,0.127-0.415,0.282-0.638,0.368l-0.23,0.709c0.194,0.051,0.404,0.099,0.5,0.289
		c0.16,0.318-0.257,0.514-0.203,0.962c0.02,0.165,0.251,0.672,0.214,0.782c-0.109,0.324-0.761,0.079-0.895,0.446
		c-0.133,0.365,0.412,0.608,0.507,0.824c0.172,0.393-0.116,0.558,0.333,0.858c0.201,0.134,0.562,0.209,0.756,0.35
		c0.432,0.314,0.914,0.508,1.38,0.803c0.574,0.363,0.619,0.794,0.765,1.347c0.077,0.291,0.301,0.615,0.372,0.883
		c0.072,0.271-0.091,0.524,0.157,0.708c0.068,0.051,0.15,0.446,0.163,0.551c0.046,0.372,0.01,0.432,0.276,0.765
		c0.372,0.465,0.523,0.937,1.119,1.129c0.327,0.106,0.703,0.563,0.806,0.863c0.05,0.145,0.021,0.248,0.034,0.387
		c0.022,0.232-0.092,0.586-0.061,0.764c0.048,0.269,0.493,0.59,0.723,0.854c0.66,0.759,1.445,1.451,2.34,1.982
		c0.579,0.343,1.1,0.919,1.493,1.483c0.2,0.287,0.438,0.583,0.705,0.809c0.302,0.255,0.659,0.343,0.988,0.572
		c0.361,0.252,0.707,0.465,0.754,0.765c0.039,0.249-0.162,0.399-0.157,0.617c0.003,0.116,0.123,0.139,0.15,0.244
		c0.195,0.752-0.001,1.39,0.289,2.148c0.149,0.388,0.322,0.641,0.375,1.067c0.105,0.851,0.236,1.685,0.361,2.539
		c0.055,0.376,0.006,0.604,0.139,0.961c0.09,0.239,0.236,0.384,0.305,0.641c0.166,0.614,0.784,1.277,1.24,1.714
		c0.518,0.497,1.44,0.889,1.361,1.607c-0.064,0.587-0.308,1.331,0.06,1.889c0.233,0.354,0.332,0.872,0.386,1.214
		c0.401,0.041,0.706-0.039,1.066,0.095c0.134,0.05,0.268,0.181,0.4,0.247c0.448,0.224,0.5,0.079,0.905,0.07
		c0.575-0.014,0.888,0.347,1.321,0.612c0.55,0.337,1.236,0.491,1.794,0.835c0.385,0.238,0.801,0.524,1.194,0.708
		c0.502,0.235,0.953,0.299,1.233,0.831c0.143,0.271,0.285,0.681,0.201,0.984c-0.085,0.31-0.353,0.822-0.243,1.151
		c0.11,0.33,0.54,0.445,0.826,0.53c0.318,0.094,0.329,0.279,0.477,0.402c0.5,0.414,1.126,0.544,1.671,0.875
		c0.314,0.19,0.713,0.334,0.922,0.559l-0.066,0.819c-0.1,0.076-0.204,0.152-0.218,0.335c-0.019,0.253,0.29,0.547,0.508,0.784
		c0.219,0.238,0.976,0.729,1.013,1.031c0.059,0.483,0.271,0.824,0.444,1.263c0.228,0.578-0.057,0.854-0.136,1.277
		c-0.046,0.246-0.011,0.44-0.119,0.695c0.336,0.497,0.649,0.181,1.017,0.367c0.057,0.029,0.132,0.063,0.216,0.096l1.137,0.251
		c0.088,0.046,0.172,0.095,0.247,0.134c0.314,0.165,0.558,0.077,0.869,0.304c0.899,0.655,1.066,0.175,2.045,0.091
		c0.704-0.061,1.106,0.365,1.613,0.787c0.062,0.052,0.408,0.298,0.442,0.343c0.188,0.248,0.029,0.16,0.018,0.457
		c-0.019,0.509,0.209,0.582,0.338,1.026c0.1,0.343-0.094,0.733,0.207,1.054c0.154,0.164,0.414,0.165,0.599,0.263
		c0.466,0.244,0.657,0.487,1.176,0.556c0.687,0.092,1.382,0.458,1.711,1.036c0.203,0.356,0.236,0.853,0.577,1.117
		c0.11,0.085,0.448,0.176,0.58,0.221c0.349,0.118,0.656,0.263,1.007,0.428c0.825,0.389,1.58,0.904,2.316,1.443
		c0.493,0.361,1.061,0.629,1.52,1.02c0.479,0.407,0.565,1.007,0.944,1.424l1.084,0.775c0.419,0.299,0.849,0.801,1.163,0.959
		c0.394,0.199,0.632,0.823,0.832,1.201c0.157,0.296,0.447,0.486,0.592,0.752c0.273,0.5,0.9,1.295,0.917,1.849
		c0.008,0.25-0.08,0.629,0.098,0.848c0.336,0.413,1.371,0.474,1.806,0.473c0.268-0.214,0.784,0.073,1.12,0.144
		c0.394,0.084,1.027,0.054,1.351-0.286c0.12-0.125,0.069-0.348,0.241-0.511c0.263-0.25,0.758-0.453,1.061-0.428
		c-0.004-0.01-0.005-0.021-0.002-0.032c0.272-0.024,0.508,0.118,0.78,0.118c0.338,0,0.623-0.221,0.97-0.207
		c0.364,0.015,0.759-0.018,1.115,0.07c0.214,0.053,0.321,0.221,0.577,0.233c0.208,0.01,0.402-0.179,0.602-0.157
		c0.213,0.024,0.444,0.05,0.668,0.073c0.316,0.006,0.59,0.144,0.902,0.177c0.426,0.046,0.862-0.063,1.293-0.029
		c0.326,0.025,0.628,0.155,0.896,0.192c0.412,0.057,0.8-0.137,1.231-0.037c-0.015,0.138,0.012,0.278,0.059,0.362
		c0.89,0.422,1.798,0.117,2.738,0.079c0.86-0.035,1.666-0.222,2.529-0.295c0.447-0.038,0.923-0.009,1.169-0.37
		c0.253,0.093,0.442-0.045,0.668-0.015c0.226,0.03,0.377,0.172,0.674,0.184c0.273,0.011,0.738-0.145,1-0.094
		c0.399,0.078,0.445,0.491,0.904,0.388c0.267-0.06,0.386-0.463,0.452-0.501c0.129-0.075,0.577-0.099,0.721-0.099
		c0.214,0,0.323,0.071,0.55,0.071c0.293,0,0.375,0.138,0.529,0.166c0.516,0.093,1.176,0.022,1.689,0.022
		c0.29,0,0.591,0.05,0.876,0.047c0.229-0.002,0.917,0.109,1.112,0.044c0.626-0.21,1.236-0.026,1.839,0.07
		c0.628,0.1,1.339,0.106,1.969,0.127c0.219,0.007,2.012-0.002,2.902-0.221l2.428-2.119c0.272-0.019,0.425,0.024,0.642-0.404
		c0.215-0.424,0.234-0.602,0.73-0.843c0.303-0.147,0.465-0.528,0.877-0.586c0.371-0.052,0.755,0.209,1.08,0.464l1.58,0.331
		c0.225-0.101,0.433-0.212,0.652-0.309c0.656-0.292,1.274-0.728,1.964-0.938c0.262-0.08,0.435-0.175,0.621-0.265l1.049-0.592
		c0.347-0.061,0.755-0.009,1.024,0.013c0.784,0.065,1.775,0.051,2.548,0.242c0.174,0.043,0.399,0.2,0.568,0.279
		c0.401,0.187,0.941,0.256,1.31,0.463c0.379,0.212,0.44,0.559,0.896,0.404c0.204-0.245,0.337-0.145,0.465-0.378
		c0.017-0.031-0.035-0.127,0.004-0.197c0.286-0.513,0.454-0.179,0.932-0.327c0.063-0.02-0.07-0.163,0.099-0.19
		c0.32-0.052,0.483,0.012,0.814,0.013c0.279,0.001,0.33,0.166,0.61,0.106c0.296-0.063,0.619-0.497,0.899-0.51
		c0.117-0.006,0.496,0.027,0.618,0.074c0.141,0.054,0.238,0.224,0.376,0.248c0.298,0.052,1.04-0.439,1.277,0.035
		c0.352,0.704,1.141,0.877,1.726,1.246c0.202,0.128,0.266,0.74,0.625,0.666c0.3-0.062,0.706,0.366,1.047,0.361
		c0.444-0.007,0.805-0.254,1.245-0.005c0.451,0.256,0.566,0.584,1.186,0.678c0.576,0.087,0.958,0.525,1.482,0.72
		c0.411,0.153,0.785,0.462,1.073,0.74c0.426,0.41,0.92,0.686,1.36,1.117c0.394,0.385,1.112,0.473,1.482,0.002
		c0.197-0.251,0.68-0.866,1.075-0.759c0.39,0.106,0.275,0.552,0.812,0.502c0.664-0.062,0.479,0.147,1.03,0.541
		c0.283,0.202,0.702,0.355,0.95,0.549c0.391,0.305,0.818,0.988,1.171,1.39c0.408,0.465,1.058,0.889,1.586,1.239
		c0.346,0.229,0.691,0.302,1.033,0.485c0.845,0.452,1.865,2.259,2.854,2.084c0.35-0.062,0.36,0.331,0.559,0.449
		c0.133,0.079,0.297,0.004,0.432,0.074c0.128,0.066,0.168,0.218,0.274,0.28c0.396,0.233,0.893,0.746,1.217,1.07
		c0.321,0.321,1.289,0.682,1.742,0.807c0.771,0.212,1.37-0.05,2.068-0.142c0.289-0.038,0.602-0.043,0.885-0.016
		c0.479,0.045,0.786-0.275,1.163-0.415c0.378-0.141,0.964-0.03,1.367-0.039c0.251-0.005,0.502-0.01,0.755-0.003
		c0.326,0.009,0.55,0.159,0.832,0.178c0.358,0.024,0.941-0.23,1.206-0.453c0.275-0.232,1.055,0.083,1.39,0.096
		c0.18,0.007,0.152-0.2,0.392-0.188c0.278,0.014,0.526-0.005,0.8-0.007c0.357-0.003,0.927-0.002,1.272,0.082
		c0.171,0.042,0.366,0.254,0.547,0.252c0.427-0.005,0.125-0.273,0.274-0.327c0.354-0.127,1.309,0.432,1.688,0.525
		c0.666,0.163,1.382,0.016,2.036-0.157c0.698-0.185,1.334-0.309,2.099-0.222c0.271,0.031,0.565-0.073,0.826-0.051
		c0.249,0.022,0.362,0.136,0.64,0.111c0.423-0.037,1.012,0.035,1.374-0.237c0.192-0.145,0.183-0.312,0.358-0.512
		c0.263-0.301,0.466-0.288,0.823-0.221c0.378,0.071,0.408,0.069,0.781-0.104c0.112-0.052,0.259-0.111,0.41-0.179l0.694-0.625
		l4.099-1.226c0.351-0.105,0.723-0.114,1.078-0.025c0.425,0.107,0.864,0.237,1.223,0.14c0.452-0.122,0.919-0.013,1.375-0.094
		c0.431-0.077,0.943-0.183,1.398-0.274c0.72-0.145,1.055-0.375,1.732,0.087c0.113,0.077,0.374,0.264,0.432,0.322
		c0.114,0.113,0.207,0.33,0.301,0.428c0.272,0.28,0.726,0.408,1.033,0.672c0.68,0.585,1.334,1.186,2.163,1.555
		c0.657,0.292,1.351,0.858,2.015,0.896c1.89,0.109,3.763,0.074,5.65-0.079c0.409-0.033,0.785-0.165,1.218-0.153
		c0.291,0.008,0.453,0.16,0.718,0.18c0.416,0.031,0.797-0.004,1.205,0.115c0.211,0.062,0.469,0.168,0.695,0.138
		c0.593-0.08,1.449,0.207,1.976,0.455c0.591,0.278,1.132,0.763,1.797,0.84c0.586,0.068,1.662,0.738,2.215,0.481
		c0.079,0.188,0.265,0.222,0.368,0.386c0.307-0.066,0.465,0.053,0.721,0.167c0.751,0.335,1.755,0.535,2.452,0.94
		c0.332,0.193,0.346,0.555,0.52,0.793c0.216,0.296,0.66,0.512,0.921,0.781c0.317,0.327,0.534,1.272,1.092,1.408
		c0.278,0.068,0.907-0.219,1.241-0.226c0.301-0.006,0.503,0.054,0.828,0.114c0.452,0.084,2.06,0.058,2.396-0.403
		c0.399,0.17,0.423,0.701,0.514,1.065c0.081,0.322,0.144,0.68,0.253,0.976c0.284,0.766,1.154,1.694,1.203,2.551
		c0.398-0.1,0.79-0.269,1.186-0.343c0.521-0.098,1.062,0.003,1.592-0.096c0.938-0.175,1.971,0.126,2.936,0.029
		c0.672-0.068,1.215-0.426,1.8-0.109c0.131,0.071,0.553,0.479,0.872,0.576c0.454,0.138,1.21,0.132,1.676,0.003
		c0.062-0.017,0.138-0.079,0.22-0.102c0.245-0.067,0.477-0.023,0.681-0.07c0.717-0.163,1.426-0.595,2.158-0.773
		c0.711-0.172,1.401-0.338,2.13-0.376c0.201-0.01,0.4-0.056,0.581-0.146c0.411-0.205,0.629-0.291,1.057-0.411
		c0.364-0.103,0.749-0.259,1.105-0.4c0.29-0.115,0.641-0.038,0.885-0.165c0.344-0.178,0.796-0.054,1.163-0.167
		c0.365-0.112,0.557-0.284,0.971-0.339c0.672-0.089,1.226-0.58,1.869-0.625c0.723-0.05,1.345-0.019,2.055-0.365
		c0.636-0.31,1.649-0.131,2.363-0.237c0.434-0.064,0.792-0.141,1.174-0.351c0.243-0.134,0.405-0.269,0.66-0.283
		c0.264-0.015,0.729,0.13,1.02,0.156c0.348,0.031,0.584,0.004,0.888-0.028c0.495-0.053,0.918,0.059,1.366-0.179
		c0.233-0.124,0.453-0.362,0.74-0.335c0.826,0.08,1.52,0.35,2.359,0.09c0.499-0.154,0.799-0.453,1.49-0.244
		c0.308,0.093,0.853,0.14,1.163,0.044c0.547-0.169,0.503-0.177,1.075,0.128c0.263,0.14,0.599,0.07,0.886,0.127
		c0.415,0.083,0.92,0.288,1.343,0.144c0.325-0.111,0.689,0.304,0.973,0.406c0.408,0.146,0.765,0.003,1.167,0.048
		c0.405,0.046,0.705,0.2,1.114,0.214c0.281,0.01,0.501-0.053,0.708-0.081c0.243-0.033,0.352-0.006,0.602,0.042
		c0.433,0.084,0.774-0.024,1.193,0.005c0.275,0.019,0.507,0.186,0.779,0.17c0.293-0.017,0.551-0.265,0.876-0.268
		c0.453-0.005,0.945,0.097,1.406,0.116c0.528,0.022,0.918,0.153,1.422,0.222c0.221,0.03,0.657,0.005,0.83-0.15
		c0.086-0.077,0.322-0.178,0.38-0.265c0.057-0.086-0.082-0.245-0.011-0.333c0.525-0.653,1.11-0.716,1.719-0.215
		c0.198,0.163,0.525-0.312,0.654-0.406c0.327-0.235,0.754-0.402,1.172-0.524c0.854-0.249,0.54-1.586,0.701-2.236
		c0.03-0.122,0.388-0.581,0.513-0.667c0.324-0.223,0.715-0.061,1.025-0.153c0.277-0.082,0.927-0.709,1.229-0.549
		c0.378,0.2,0.933-0.045,1.362,0.195c0.434,0.242,0.776,0.659,1.223,0.915c0.426,0.245,1.061,0.266,1.519,0.377
		c0.566,0.136,1.065,0.459,1.657,0.556c0.379,0.062,0.87,0.16,1.158,0.414c0.367-0.113,1.135-0.005,1.396-0.538l0.043-0.04l0,0
		l0.019-0.045c-0.02-0.231,0.066-0.477,0.008-0.694c-0.045-0.169-0.359-0.524-0.31-0.738c0.009-0.037,0.439-0.492,0.493-0.53
		c0.087-0.062,0.206-0.035,0.293-0.107c0.099-0.082,0.136-0.168,0.141-0.173c0.251-0.281,0.352-0.422,0.389-0.766
		c0.015-0.141-0.051-0.217-0.034-0.342c0.053-0.394,0.215-0.215,0.39-0.421c0.189-0.222,0.135-0.594,0.376-0.691
		c0.208-0.084,0.691,0.201,0.913,0.244c0.249,0.048,0.516,0.104,0.692-0.225c-0.026,0.003,0.328-0.398,0.45-0.538
		c0.18-0.208,0.343-0.425,0.417-0.685c0.128-0.45-0.014-0.899-0.166-1.301c0.053,0.007-0.036,0.041,0,0
		c-0.01-0.013,0.07-0.023,0.059-0.036c0.309-0.092,0.875,0.037,1.246,0.029c0.239-0.005,0.524-0.139,0.741-0.13
		c0.107,0.004,0.205,0.123,0.316,0.136c0.55,0.066,1.139,0.078,1.678,0.112c0.119,0.007,0.28,0.032,0.403,0.05
		c0.333,0.047,0.742,0.357,1.022,0.352c0.387-0.007,0.764,0.129,1.139,0.186c0.589,0.09,0.168-0.137,0.361-0.301
		c0.092-0.078,0.226-0.152,0.339-0.215c0.711-0.397,1.479-0.697,2.277-0.862c0.367-0.076,0.622-0.152,0.901-0.298
		c0.232-0.122,0.116-0.216,0.24-0.303c0.153-0.107,0.21-0.173,0.414-0.211c0.289-0.053,0.521-0.061,0.754-0.057l0.996,0.008
		c0.413-0.051,0.816-0.258,1.247-0.171c0.354,0.072,0.799,0.052,1.086,0.145c0.818,0.264,1.509,0.426,2.395,0.408
		c0.525-0.011,1.018-0.405,1.576-0.445c0.215-0.016,0.525-0.047,0.715-0.077c0.245-0.038,0.291-0.116,0.568-0.104
		c0.407,0.018,0.592,0.105,0.935,0.014c0.318-0.085,1.074,0.131,1.389,0.225c0.178,0.053,0.582,0.251,0.707,0.255
		c0.201,0.006,0.322-0.106,0.5-0.152c0.257-0.066,0.447-0.057,0.733-0.072c0.476-0.024,0.741,0.42,1.166,0.535
		c0.271,0.073,0.517,0.514,0.802,0.652c0.332,0.16,0.574,0.058,0.872,0.057c0.948-0.004,1.742,0.547,2.672,0.45
		c0.154-0.016,0.337-0.219,0.526-0.202c0.206,0.019,0.317,0.236,0.519,0.282c0.551,0.125,1.141-0.135,1.725,0.014
		c0.436,0.111,0.767,0.367,1.243,0.361c0.237-0.003,1.417,0.135,1.212-0.304c-0.049-0.104-0.443-0.542-0.442-0.553
		c0.003-0.104,0.32-0.154,0.367-0.23c0.061-0.101-0.004-0.403,0.032-0.44c0.034-0.036,0.663-0.193,0.782-0.245
		c0.297-0.128,0.444-0.28,0.54-0.494c0.097-0.215,0.026-0.661-0.022-0.969l0.877-0.608c0.162,0.016,0.399,0.092,0.511,0.084
		c0.319-0.022,0.892-0.218,1.179-0.168c0.451,0.077,0.981-0.022,1.421,0.041c0.074,0.011,0.285,0.111,0.374,0.129
		c0.286,0.06,0.617-0.058,0.889,0.03c0.406,0.132,0.282,0.344,0.766,0.292c0.44-0.048,0.812-0.36,1.3-0.348
		c0.836,0.02,1.76,0.417,2.622,0.559c0.296,0.049,0.645,0.062,0.923,0.204c0.301,0.154,0.226,0.272,0.423,0.435
		c0.241,0.2,0.769,0.535,1.075,0.589c0.386,0.068,0.526-0.008,0.935,0.158c0.32,0.13,0.651,0.211,0.9,0.469
		c0.551,0.571,1.05,0.686,1.709,1.017c0.758,0.381,0.919,0.863,1.404,1.48c0.267,0.34,0.414,0.619,0.805,0.868
		c0.337,0.214,0.715,0.302,0.926,0.661c0.105,0.179,0.029,0.259,0.183,0.434c0.224,0.253,0.536,0.254,0.713,0.59
		c0.476,0.901,0.917,0.747,1.707,1.103l0.024-0.08l0.017,0.009c0.262-0.048,0.656,0.258,0.922,0.334
		c0.686,0.196,1.477,0.336,2.136,0.588c0.771,0.296,1.469,0.932,2.218,0.819c1.063-0.16,2.11,0.383,3.251,0.239
		c0.098-0.012,0.261,0.062,0.347,0.119l-0.002-0.003c0.282,0.211,0.577,0.137,0.862,0.222c0.361,0.107,0.647,0.369,1.02,0.389
		c0.184,0.01,0.309-0.142,0.45-0.174c0.303-0.069,0.412-0.014,0.718,0.022c0.66,0.079,1.196,0.397,1.811,0.584
		c0.934,0.284,1.844,0.69,2.767,1.114c0.731,0.336,1.504,0.629,2.02,1.28c0.615,0.776,1.595,1.43,2.45,2
		c0.291,0.194,0.55,0.466,0.841,0.667c0.353,0.244,0.686,0.321,1.029,0.444c1.096,0.392,2.227,1.398,3.076,2.189
		c0.626,0.583,1.242,1.283,2.112,1.603c0.558,0.205,1.121,0.517,1.603,0.605c0.565,0.103,1.086,0.376,1.547,0.717
		c0.692,0.512,1.471,0.938,2.163,1.478c0.449,0.35,0.335,0.376,0.553,0.848c0.161,0.348,0.677,0.739,1.14,0.799
		c0.186,0.024,0.097-0.152,0.273-0.133c0.085,0.009,0.242,0.064,0.395,0.131l1.059,2.07c0.062,0.067,0.24,0.131,0.145,0.237
		c-0.128,0.143-0.089,0.458,0.106,0.626c-0.02,0.169-0.137,0.161-0.139,0.355c-0.004,0.324,0.232,0.404,0.429,0.628
		c0.243,0.276,0.249,0.489,0.209,0.72l0.318,1.177c0.423,0.262,1.276,0.345,1.619,0.479c0.59,0.23,1.25,0.417,1.922,0.516
		c0.36,0.053,0.715,0.151,1.038,0.183c0.286,0.028,0.624,0.037,0.896,0.032c0.609-0.012,0.411-0.089,0.718-0.42
		c0.116-0.125,0.35-0.257,0.489-0.348c0.199-0.131,0.507-0.348,0.699-0.429c0.401-0.17,0.723-0.188,1.071-0.397
		c0.177-0.106,0.333-0.253,0.544-0.431c0.288-0.244,0.722-0.218,0.912-0.589c0.417,0.012,0.307-0.273,0.333-0.593
		c0.038-0.465,0.239-1.191,0.595-1.483c0.116-0.095,0.482-0.123,0.675-0.204c0.438-0.183,0.759-0.414,1.268-0.432
		c0.344-0.012,0.601-0.412,0.85-0.661c0.281-0.28,0.158-0.232,0.678-0.267c0.184-0.012,0.33-0.049,0.455-0.088l1.508,0.908
		c0.083,0.135,0.162,0.275,0.245,0.399c0.16,0.24,0.381,0.435,0.536,0.65c0.177,0.244,0.213,0.575,0.336,0.861
		c0.051,0.117,0.186,0.105,0.235,0.215c0.016,0.035-0.048,0.229-0.028,0.302c0.033,0.121,0.102,0.274,0.122,0.359
		c0.072,0.304,0.074,0.566,0.274,0.835c0.176,0.236,0.431,0.581,0.686,0.728c0.239,0.138,0.563,0.112,0.849,0.314
		c0.095,0.067,0.241,0.184,0.305,0.25c0.313,0.322,0.482,0.734,0.892,1.001c0.411,0.266,0.857,0.455,1.269,0.734
		c0.247,0.167,0.443,0.309,0.705,0.281c0.105-0.011,0.323-0.156,0.427-0.206c0.159-0.077,0.451-0.184,0.584-0.266
		c0.151-0.093,0.119-0.218,0.247-0.34c0.046-0.044,0.237,0.082,0.298,0.011c0.047-0.055,0.023-0.194,0.053-0.236
		c0.086-0.122,0.007-0.228,0.094-0.35c0.218-0.306,0.312-0.076,0.443-0.534c0.069-0.242,0.133-0.315,0.418-0.335
		c-0.077,0.006,0.65,0.16,0.609,0.143c0.312,0.13,0.62,0.415,0.959,0.579c0.169,0.082,0.353,0.228,0.544,0.209
		c0.041-0.004,0.51-0.185,0.528-0.197c0.078-0.053,0.163-0.153,0.241-0.249l1.124-0.33c0.061,0.015,0.125,0.028,0.201,0.037
		c0.298-0.011,0.087-0.157,0.157-0.323c0.096-0.225,0.159-0.408,0.367-0.701c0.251-0.354,0.324-0.722,0.839-0.601
		c0.399,0.095,0.171-0.154,0.3-0.174c0.283-0.042,0.252,0.006,0.537,0.098c0.17,0.055,0.276,0.164,0.463,0.168
		c0.105,0.003,0.243-0.147,0.323-0.14c0.062,0.006,0.096-0.002,0.173,0.007c0.298,0.038,0.691,0.381,1.068,0.385
		c0.655,0.007,1.466,0.135,1.703,0.913c0.131,0.428,0.302,0.542,0.493,0.767c0.224,0.264,0.211,0.469,0.598,0.593
		c0.483,0.155,0.761,0.23,1.254,0.311c0.721,0.117,1.53-0.167,2.247-0.305c0.313-0.06,0.904-0.079,1.165-0.232
		c0.247-0.144,0.234-0.519,0.315-0.668c0.093-0.172,0.208-0.447,0.381-0.533c0.213-0.107,0.551,0.058,0.762-0.113
		c0.41-0.332-0.015-1.183,0.077-1.683c0.058-0.315,0.221-0.489,0.408-0.637c0.403-0.32,0.732-1.042,0.771-1.554
		c0.06-0.782-0.076-1.142-0.495-1.779c-0.394-0.599-0.576-1.132-0.412-1.829c0.041-0.172,0.238-0.045,0.212-0.258
		c-0.02-0.16-0.001-0.104,0.085-0.218c0.053-0.07,0.092-0.253,0.193-0.289c0.707-0.252,1.302,0.819,1.865,0.896
		c0.354,0.048,0.51-0.278,0.881-0.248c0.454,0.036,0.959,0.431,1.381,0.584c0.764,0.277,1.353-0.139,2.036,0.102
		c0.07-0.151,1.145,0.174,1.351-0.065c0.159-0.185-0.106-0.265,0.303-0.426c0.104-0.041,0.409,0.056,0.485-0.009
		c0.122-0.104-0.046-0.316,0.017-0.425c0.416-0.722,1.082-0.272,1.705-0.254c0.29,0.009,0.532-0.133,0.846-0.1
		c0.203,0.022,0.406,0.09,0.663,0.066c0.452-0.043,0.413-0.214,0.581-0.545c0.038-0.074,0.181-0.069,0.213-0.144
		c0.056-0.13-0.124-0.157,0.007-0.386c0.166-0.288,0.321-0.597,0.583-0.722c0.562-0.268,0.308-0.748,0.583-1.278
		c0.229-0.442,0.76-0.572,0.843-1.129c0.059-0.397-0.018-0.675-0.163-1.081c-0.216-0.605-0.267-1.292-0.378-1.895
		c-0.015-0.08-0.033-0.138-0.055-0.19l0.04-1.398l1.272-0.697c0.102,0.034,0.216,0.069,0.273,0.068c0.004,0,0.041-0.01,0.092-0.026
		l1.629-0.196c0.623-0.028-0.414-0.409,0.131-0.76c0.071-0.046-0.187-0.101-0.307-0.371l0.598-0.457
		c0.103,0.012,0.221,0.027,0.328,0.038l1.08-0.582l0.905-0.865c0.117-0.033,0.198-0.114,0.129-0.367
		c-0.246-0.895,0.865,0.148,0.109-0.895c-0.196-0.271-0.422-0.564-0.264-0.724l0.71-0.181c0.056-0.023,0.108-0.074,0.263-0.11
		c0.271-0.064,0.592-0.161,0.897-0.14c0.142,0.009,0.271,0.133,0.399,0.114c0.232-0.034,0.637-0.438,0.911-0.515
		c0.334-0.094,0.875,0.051,0.971-0.24l0.819-1.338l0.952-1.851c0.08-0.117,0.166-0.185,0.292-0.214l1.864,0.555l1.34-0.261
		c0.377-0.003,0.742-0.058,1.081-0.232c0.526-0.27,0.86-0.221,1.393-0.056c0.648,0.202,1.528,0.083,2.193-0.086
		c0.868-0.22,0.998-1.09,1.968-0.712c0.368,0.143,0.812,0.196,1.239,0.203c0.464,0.008,0.844-0.369,0.842-0.833l-0.008-1.845
		c0-0.109-0.014-0.218-0.059-0.317c-0.156-0.342-0.467-0.712-0.673-1c-0.229-0.319-0.528-0.551-0.74-0.909
		c-0.215-0.363-0.247-0.322-0.678-0.57c-0.574-0.331-1.019-1.052-1.406-1.499c-0.157-0.181-0.247-0.124-0.352-0.365
		c-0.105-0.24-0.113-0.611-0.223-0.877c-0.037-0.089-0.117-0.362-0.21-0.468c-0.135-0.39-0.657-0.977-0.967-1.352
		c-0.434-0.523-0.732-1.311-1.286-1.71c-0.017-0.115-0.033-0.261,0.194-0.254c-0.108-0.208-0.191-0.365-0.298-0.503l-0.267-0.584
		c-0.123-0.205-0.325-0.446-0.37-0.532c-0.119-0.229-0.326-0.474-0.579-0.665c-0.298-0.224-0.537-0.321-0.811-0.608
		c-0.251-0.262-0.559-0.488-0.846-0.689c-0.367-0.258-0.608-0.427-0.883-0.811c-0.304-0.424-0.642-0.634-1.069-0.99
		c-0.497-0.415-0.807-0.603-1.098-1.144c-0.273-0.508-0.684-0.853-1.018-1.307c-0.275-0.373-0.228-0.746-0.439-1.121
		c-0.199-0.354-1.991-1.685-1.915-1.773c-0.055-0.08-0.096-0.14-0.175-0.212c0.003-0.009,0.044,0.017,0.046,0.019
		c-0.354-0.563-1.173-0.621-1.481-1.139c0.256-0.089,0.407,0.026,0.375-0.261c-0.043-0.396-0.643-0.387-0.681-0.726
		c-0.024-0.211-0.195-0.265-0.236-0.449c-0.026-0.118-0.04-0.631-0.024-0.69c-0.002,0.01,0.019-0.256,0.013-0.185
		c0.001-0.006,0.168,0.049,0.177-0.057c0.014-0.171,0.024-0.298-0.151-0.415c-0.037-0.113-0.271-0.197-0.371-0.321
		c-0.254-0.315-0.205-0.626-0.273-0.942c-0.089-0.408-0.254-0.473-0.415-0.802c-0.162-0.333-0.007-0.717-0.206-1.048
		c-0.423-0.702-1.303-0.915-1.745-1.634c-0.155-0.434-0.592-0.38-0.903-0.636c-0.399-0.33-0.686-0.948-0.995-1.298
		c-0.683-0.774-1.635-1.289-2.068-2.274c-0.022-0.049-0.083-0.405-0.065-0.473c0.012-0.046,0.213,0.093,0.254-0.037
		c0.047-0.15-0.07-0.339,0.004-0.52c0.213-0.518,1.469-0.733,1.546-1.121c-0.028,0.14-0.015,0.137,0,0
		c0.365-0.293,0.487-0.647,0.464-0.827c-0.05-0.399-0.451-0.599-0.491-0.967c-0.012-0.112,0.067-0.262,0.116-0.417
		c0.082-0.262,0.31-0.252,0.331-0.514c0.041-0.516-0.463-0.783-0.549-1.216c-0.059-0.295-0.527-0.545-0.696-0.8
		c-0.152-0.231-0.173-0.476-0.388-0.624c-0.013-0.381-0.123-0.676-0.302-0.864c-0.265-0.276-0.446-0.542-0.704-0.806
		c-0.271-0.278-0.458-0.51-0.693-0.806c-0.131-0.165-0.285-0.277-0.442-0.414c-0.203-0.176-0.096-0.352-0.19-0.512
		c-0.459-0.791-1.39-1.568-1.013-2.558c0.185-0.485,0.708-1.114,1.017-1.547c0.288-0.404,0.252-0.849,0.3-1.452
		c0.066-0.825-0.777-1.791-1.1-2.44c-0.233-0.467-0.627-0.789-0.962-1.177c-0.042-0.048-0.301-0.36-0.306-0.395
		c-0.014-0.105,0.208-0.125,0.215-0.179c0.012-0.102-0.031-0.26-0.018-0.343c0.034-0.208,0.071-0.447,0.107-0.612
		c0.018-0.083-0.165-0.331,0.06-0.362c0.302-0.043,0.55-0.394,0.398-0.667c-0.099-0.178-0.408-0.127-0.518-0.288
		c-0.028-0.042,0.033-0.47,0.029-0.542c-0.012-0.221-0.204-0.222-0.28-0.414c-0.057-0.144,0.138-0.089,0.115-0.161
		c-0.123-0.387-0.33-0.655-0.57-0.951c-0.333-0.411-0.697-0.786-0.843-1.289c-0.092-0.315-0.227-0.267,0.114-0.52
		c0.171-0.127,0.43-0.338,0.596-0.421c0.123-0.062,0.409-0.15,0.427-0.159c0.109-0.056,0.274-0.165,0.301-0.182
		c0.2-0.121,0.291-0.163,0.642-0.063l0-0.002c0.715,0.154,1.601-0.168,2.267-0.01c0.514,0.122,1.005,0.204,1.527,0.272
		c0.361,0.046,0.657,0.108,1.016,0.227c0.4,0.132,0.833,0.085,1.246,0.225c0.569,0.192,0.792,0.015,1.274-0.121
		c0.333-0.094,0.83-0.168,1.105-0.379c0.234-0.179,0.25-0.497,0.509-0.641c0.112-0.141,0.109-0.33,0.197-0.472
		c0.014-0.023,0.063-0.044,0.118-0.067l0.342-1.63c-0.016-0.02-0.035-0.038-0.055-0.056l-1.001-1.171
		c-0.087-0.082-0.175-0.16-0.265-0.238l-0.044-1.102c0.026-0.072,0.051-0.148,0.098-0.21c0.037-0.049,0.089-0.086,0.144-0.117
		l1.047-0.335c0.509,0.104,1.06,0.318,1.53,0.31c0.246-0.004,0.298-0.107,0.613-0.07c0.189,0.022,0.39-0.067,0.57-0.155l0.907-0.206
		c0.136,0.008,0.274,0.038,0.332,0.044c-0.021-0.017,0.439-0.015,0.434-0.04c0.812-0.401,1.115,0.093,1.926-0.075
		c0.401-0.083,0.857,0.006,1.172-0.358c0.248-0.286,0.342-0.937,0.646-1.134c0.58-0.377,1.038-0.018,1.34-0.538
		c0.133-0.228,0.229-0.402,0.292-0.676c0.006-0.026-0.16-0.102-0.145-0.167c0.04-0.178,0.767,0.148,0.393-0.161
		c0.011-0.013,0.043-0.455,0.059-0.456c-0.055-0.033,0.04,0.048,0,0c0.062-0.182-0.323-0.225-0.135-0.246
		c0.224-0.025-0.014-0.311,0.053-0.383c0.19-0.202,0.253-0.107,0.568-0.055c0.37,0.061,0.6,0.073,0.913,0.056l0.146-0.444
		l1.078-0.284c0.234-0.005,0.092-0.39,0.615-0.383l2.652-1.036c0.251-0.256,0.529-0.758,0.729-1.063
		c0.274-0.419,0.67-0.835,1.2-1.006c0.305-0.098,0.601-0.053,0.234-0.336c-0.383-0.295-0.344-0.492-0.39-0.944
		c-0.008-0.076,0.17-0.018,0.091-0.172c-0.118-0.229-0.398-0.277-0.593-0.408c-0.156-0.105-0.819-0.584-0.415-0.666
		c-0.147-0.155-0.315-0.297-0.397-0.485c0.006-0.005,0.037,0.016,0.039,0.006c-0.046-0.287-0.539-0.786-0.882-0.997
		c-0.207-0.128-1.794-1.004-1.145-1.115c0.038-0.075,0.181-0.198,0.247-0.297c0.234-0.347,0.179,0.001,0.064-0.465
		c-0.131-0.53-0.169-0.386,0.338-0.705c0.829-0.521-0.711-1.034-1.076-1.408c-0.396-0.406-0.015-0.244,0.331-0.48
		c0.171-0.117,0.243-0.504,0.523-0.532c0.226-0.022,0.392-0.297,0.423-0.301c0.255-0.035,0.817,0.143,1.086,0.191
		c0.382,0.069,0.591,0.212,0.992,0.148c0.189-0.03,0.417-0.135,0.597-0.177c0.059-0.014,0.061,0.017,0.118,0.004
		c0.968-0.222,2.2-0.092,2.672-0.052c0.562,0.048,1.096,0.303,1.62,0.305c0.185,0.001,1.29,0.024,0.786-0.293
		c0.356-0.227,1.078-0.495,1.596-0.059c0.165,0.139,0.174,0.371,0.415,0.423c0.42,0.09,0.838,0.205,1.262,0.266
		c0.475,0.069,1.267-0.012,1.664,0.3c0.303,0.238,0.239,0.371,0.662,0.57c0.976,0.459,2.08,0.779,2.981,1.37
		c0.695,0.456,1.565,0.774,2.377,0.902c0.468,0.074,0.965-0.078,1.469,0.005c0.575,0.095,1.119,0.328,1.659,0.557
		c0.657,0.278,1.322,0.561,1.901,0.977c0.599,0.431,1.353,0.475,1.956,0.876c0.502,0.334,0.975,0.446,1.506,0.701
		c0.438,0.211,0.899,0.335,1.332,0.553c0.283,0.142,0.57,0.388,0.877,0.467c1.175,0.303,2.347,0.942,3.414,1.482
		c0.559,0.282,2.437,1.298,2.957,0.881l0.749-0.62c0.474-0.289,0.322-1.157,0.949-0.983c0.588,0.163,1.137,0.096,1.646,0.446
		c0.445,0.305,0.865,0.504,1.46,0.491c0.356-0.008,0.341-0.139,0.597-0.153c0.2-0.011,0.632,0.098,0.831,0.141
		c0.942,0.206,1.795,0.554,2.72,0.816c0.5,0.142,0.936,0.445,1.465,0.577c0.779,0.195,1.442,0.184,2.229,0.197
		c0.17,0.003,0.43,0,0.537-0.024c0.359,0.096,0.671-0.187,0.626-0.418c0.488-0.025,0.006-0.162,0.056-0.203
		c0.014-0.011-0.071-0.094-0.01-0.13c0.114-0.068,0.486,0.042,0.617,0.044c0.477,0.008,0.954,0.088,1.451,0.147
		c0.433,0.051,0.969,0.215,1.379,0.217c0.744,0.003,1.076-0.27,1.773,0.373c0.425,0.392,0.944,0.67,1.518,0.866
		c0.409,0.14,0.783,0.093,1.219,0.215c0.628,0.176,1.276,0.543,1.81,0.907c0.466,0.318,1.489,0.716,1.71,1.189
		c0.305,0.44,1.045,0.941,1.446,1.359c0.199,0.207,0.204,0.396,0.246,0.605c0.067,0.333,0.156,0.468,0.387,0.801
		c-0.029,0.326,0.685,0.563,0.905,0.837c-0.052,0.063,0.419,0.869,0.505,1.007c0.305,0.484,0.829,0.594,1.255,0.989
		c0.231,0.214,0.552,0.31,0.762,0.551c0.149,0.171,0.186,0.394,0.334,0.547c0.072,0.075,0.309,0.091,0.419,0.181
		c0.176,0.145,0.367,0.505,0.444,0.711c0.058,0.156,0.079,0.338,0.09,0.443c0.01,0.093-0.183,0.103-0.157,0.229
		c0.011,0.057,0.332,0.421,0.393,0.475c0.387,0.343,1.034,0.367,1.338,0.794c-0.027,0.174,0.033,0.371-0.273,0.582
		c-0.222,0.153-0.472-0.055-0.464,0.209c0.003,0.092,0.259,0.202,0.318,0.268c0.147,0.166,0.507,0.444,0.607,0.635
		c0.038,0.072,0.19,0.783,0.163,0.831c-0.074,0.13-0.363-0.045-0.402,0.069c-0.027,0.078,0.198,0.426,0.249,0.513
		c0.12,0.207,0.165,0.359,0.422,0.528c0.357,0.237,0.8,0.167,1.184,0.323c0.369,0.15,0.704,0.395,1.071,0.558
		c0.522,0.232,1.193,0.992,1.534,1.412c-0.296,0.09-0.099,0.26,0.141,0.397c-0.029-0.009-0.057-0.019-0.087-0.028"/>
</g>
<g id="cities">
	<circle id="Noe_annet" class="st4" cx="197.923" cy="217.981" r="1.206"/>
	<circle id="Moskva" class="st4" cx="213.122" cy="241.751" r="1.206"/>
</g>
</svg>
